<svg width="15" height="16" viewBox="0 0 15 16" fill="none" xmlns="http://www.w3.org/2000/svg">
<path d="M0 7.85986C0 3.71773 3.35786 0.359863 7.5 0.359863C11.6421 0.359863 15 3.71773 15 7.85986C15 12.002 11.6421 15.3599 7.5 15.3599C3.35786 15.3599 0 12.002 0 7.85986Z" fill="#5B4AF2"/>
<path fill-rule="evenodd" clip-rule="evenodd" d="M10.3201 5.47577C10.5322 5.65255 10.5609 5.96783 10.3841 6.17997L7.05079 10.18C6.95579 10.294 6.81507 10.3599 6.66668 10.3599C6.51829 10.3599 6.37757 10.294 6.28257 10.18L4.6159 8.17997C4.43912 7.96783 4.46778 7.65255 4.67992 7.47577C4.89206 7.29898 5.20734 7.32765 5.38412 7.53978L6.66668 9.07885L9.6159 5.53978C9.79268 5.32765 10.108 5.29898 10.3201 5.47577Z" fill="black"/>
</svg>
