<svg width="40" height="41" viewBox="0 0 40 41" fill="none" xmlns="http://www.w3.org/2000/svg">
<path d="M0 8.85986C0 4.44158 3.58172 0.859863 8 0.859863H32C36.4183 0.859863 40 4.44159 40 8.85986V32.8599C40 37.2781 36.4183 40.8599 32 40.8599H8C3.58172 40.8599 0 37.2781 0 32.8599V8.85986Z" fill="black" fill-opacity="0.1"/>
<path fill-rule="evenodd" clip-rule="evenodd" d="M23.3343 20.8599C23.3343 19.9399 23.0071 19.1542 22.3571 18.5027C21.74 17.8656 20.8871 17.5113 20 17.5256C19.08 17.5256 18.2943 17.8527 17.6429 18.5027C17.0057 19.1199 16.6514 19.9727 16.6657 20.8599C16.6657 21.7799 16.9929 22.5656 17.6429 23.217C18.26 23.8541 19.1143 24.207 20 24.1927C20.92 24.1927 21.7057 23.867 22.3571 23.217C22.9943 22.5999 23.3486 21.747 23.3343 20.8599ZM25.13 20.8599C25.13 22.2827 24.63 23.4941 23.6329 24.4927C22.6343 25.4913 21.4229 25.9899 20 25.9899C18.5771 25.9899 17.3657 25.4899 16.3671 24.4927C15.3686 23.4941 14.87 22.2827 14.87 20.8599C14.87 19.4356 15.37 18.2241 16.3671 17.227C17.3657 16.227 18.5771 15.7299 20 15.7299C21.4229 15.7299 22.6343 16.2284 23.6329 17.227C24.6314 18.2241 25.13 19.4356 25.13 20.8599ZM26.5371 15.5213C26.5371 15.8499 26.4186 16.1327 26.1843 16.367C25.9629 16.5956 25.6571 16.7227 25.3386 16.7184C25.02 16.7227 24.7143 16.5956 24.4929 16.367C24.2643 16.1456 24.1371 15.8399 24.1414 15.5213C24.1414 15.1913 24.2571 14.9084 24.4929 14.6756C24.7143 14.4456 25.02 14.3184 25.3386 14.3227C25.6686 14.3227 25.9514 14.4399 26.1843 14.6756C26.4129 14.897 26.5414 15.2027 26.5371 15.5213ZM20 12.657L19.0043 12.6499C18.5457 12.6456 18.0886 12.6456 17.63 12.6499C17.3171 12.6541 16.8986 12.667 16.3729 12.6899C15.8486 12.7113 15.4014 12.7541 15.0329 12.8184C14.7157 12.8713 14.4043 12.9513 14.1014 13.0613C13.6714 13.2313 13.2814 13.4884 12.9557 13.8156C12.6271 14.1441 12.3743 14.527 12.2 14.9613C12.0914 15.2641 12.01 15.5756 11.9586 15.8927C11.8871 16.3356 11.8443 16.7841 11.83 17.2327C11.8071 17.7584 11.7943 18.177 11.79 18.4899C11.7857 18.8027 11.7857 19.2613 11.79 19.8642L11.7971 20.8599L11.79 21.8556C11.7857 22.4584 11.7857 22.917 11.79 23.2299C11.7943 23.5413 11.8071 23.9613 11.83 24.487C11.8443 24.9356 11.8871 25.3841 11.9586 25.827C12.0243 26.1956 12.1043 26.507 12.2014 26.7584C12.5457 27.627 13.2329 28.3156 14.1014 28.6599C14.3529 28.7541 14.6643 28.8356 15.0329 28.8999C15.4014 28.9656 15.8471 29.0084 16.3743 29.0299C16.8986 29.0527 17.3171 29.0641 17.6314 29.0699C17.9429 29.0741 18.4014 29.0741 19.0029 29.0699L20 29.0627L20.9957 29.0699C21.5986 29.0741 22.0571 29.0741 22.37 29.0699C22.6829 29.0641 23.1014 29.0527 23.6271 29.0299C24.1514 29.0084 24.5986 28.9656 24.9671 28.8999C25.3357 28.8356 25.6471 28.7541 25.8986 28.6599C26.7671 28.3156 27.4543 27.627 27.7986 26.7584C27.9086 26.4556 27.99 26.1441 28.0414 25.827C28.1129 25.3827 28.1557 24.9356 28.17 24.4856C28.1929 23.9613 28.2057 23.5427 28.21 23.2284C28.2143 22.917 28.2143 22.4584 28.21 21.8556L28.2029 20.8599L28.21 19.8642C28.2143 19.2599 28.2143 18.8027 28.21 18.4899C28.2029 18.0713 28.1886 17.6513 28.17 17.2327C28.1557 16.7841 28.1129 16.3356 28.0414 15.8927C27.9886 15.5756 27.9086 15.2641 27.7986 14.9613C27.6286 14.5313 27.3714 14.1413 27.0443 13.8156C26.7186 13.4884 26.3286 13.2313 25.8986 13.0599C25.5957 12.9513 25.2843 12.8699 24.9671 12.8184C24.5229 12.747 24.0757 12.7027 23.6257 12.6899C23.1014 12.667 22.6829 12.6541 22.3686 12.6499C21.9114 12.6456 21.4543 12.6456 20.9971 12.6499L20 12.657ZM30 20.8599C30 22.8484 29.9786 24.2227 29.9343 24.9884C29.8486 26.7927 29.31 28.1899 28.32 29.1799C27.33 30.1699 25.9343 30.7084 24.1271 30.7941C23.3643 30.837 21.9886 30.8599 20 30.8599C18.0114 30.8599 16.6357 30.8384 15.8714 30.7941C14.0671 30.7084 12.67 30.1699 11.6786 29.1799C10.69 28.1899 10.1514 26.7941 10.0643 24.987C10.0229 24.2227 10 22.8484 10 20.8599C10 18.8713 10.0214 17.4956 10.0657 16.7313C10.1514 14.9256 10.69 13.5284 11.68 12.5384C12.67 11.5499 14.0657 11.0113 15.8729 10.9241C16.6357 10.8813 18.0114 10.8599 20 10.8599C21.9886 10.8599 23.3643 10.8813 24.1286 10.9241C25.9329 11.0113 27.33 11.5499 28.3214 12.5384C29.31 13.5284 29.8486 14.9256 29.9357 16.7327C29.9786 17.4956 30 18.8713 30 20.8599Z" fill="black"/>
</svg>
