<svg width="40" height="41" viewBox="0 0 40 41" fill="none" xmlns="http://www.w3.org/2000/svg">
<path d="M0 8.85986C0 4.44158 3.58172 0.859863 8 0.859863H32C36.4183 0.859863 40 4.44159 40 8.85986V32.8599C40 37.2781 36.4183 40.8599 32 40.8599H8C3.58172 40.8599 0 37.2781 0 32.8599V8.85986Z" fill="black" fill-opacity="0.1"/>
<path d="M10.9592 17.5915H14.7637V29.8248H10.9592V17.5915ZM12.8547 11.5151C14.078 11.5151 15.0594 12.4965 15.0594 13.7198C15.0594 14.9297 14.078 15.9245 12.8547 15.9245C11.6314 15.9245 10.65 14.9297 10.65 13.7198C10.65 12.4965 11.6314 11.5151 12.8547 11.5151Z" fill="black"/>
<path d="M17.1429 17.5914H20.7861V19.2584H20.8398C21.3507 18.2905 22.5875 17.2822 24.4426 17.2822C28.2874 17.2822 28.9999 19.8096 28.9999 23.1031V29.8113H25.1954V23.8694C25.1954 22.4444 25.1685 20.6296 23.2193 20.6296C21.2431 20.6296 20.9339 22.1756 20.9339 23.7753V29.8248H17.1429V17.5914Z" fill="black"/>
</svg>
