<svg width="15" height="15" viewBox="0 0 15 15" fill="none" xmlns="http://www.w3.org/2000/svg">
<g clip-path="url(#clip0_1382_16)">
<path d="M5.16669 7.85978H5.17252M7.50002 7.85978H7.50585M9.83335 7.85978H9.83919M5.10835 12.5265C6.22169 13.0976 7.5024 13.2523 8.7197 12.9627C9.93701 12.6731 11.0108 11.9582 11.7477 10.9469C12.4846 9.93562 12.836 8.69439 12.7387 7.4469C12.6414 6.19942 12.1017 5.02771 11.2169 4.14292C10.3321 3.25814 9.16041 2.71846 7.91293 2.62114C6.66544 2.52381 5.42421 2.87525 4.41292 3.61212C3.40162 4.34899 2.68676 5.42282 2.39715 6.64012C2.10754 7.85743 2.26224 9.13814 2.83335 10.2515L1.66669 13.6931L5.10835 12.5265Z" stroke="black" stroke-opacity="0.7" stroke-linecap="round" stroke-linejoin="round"/>
</g>
<defs>
<clipPath id="clip0_1382_16">
<rect width="14" height="14" fill="white" transform="translate(0.5 0.859863)"/>
</clipPath>
</defs>
</svg>
