<svg width="14" height="15" viewBox="0 0 14 15" fill="none" xmlns="http://www.w3.org/2000/svg">
<path d="M5.25 2.60974H2.33333C2.01117 2.60974 1.75 2.87091 1.75 3.19307V7.27641C1.75 7.59857 2.01117 7.85974 2.33333 7.85974H5.25C5.57217 7.85974 5.83333 7.59857 5.83333 7.27641V3.19307C5.83333 2.87091 5.57217 2.60974 5.25 2.60974Z" stroke="black" stroke-opacity="0.7" stroke-linecap="round" stroke-linejoin="round"/>
<path d="M11.6667 2.60974H8.75C8.42783 2.60974 8.16667 2.87091 8.16667 3.19307V4.94307C8.16667 5.26524 8.42783 5.52641 8.75 5.52641H11.6667C11.9888 5.52641 12.25 5.26524 12.25 4.94307V3.19307C12.25 2.87091 11.9888 2.60974 11.6667 2.60974Z" stroke="black" stroke-opacity="0.7" stroke-linecap="round" stroke-linejoin="round"/>
<path d="M11.6667 7.85974H8.75C8.42783 7.85974 8.16667 8.12091 8.16667 8.44307V12.5264C8.16667 12.8486 8.42783 13.1097 8.75 13.1097H11.6667C11.9888 13.1097 12.25 12.8486 12.25 12.5264V8.44307C12.25 8.12091 11.9888 7.85974 11.6667 7.85974Z" stroke="black" stroke-opacity="0.7" stroke-linecap="round" stroke-linejoin="round"/>
<path d="M5.25 10.1931H2.33333C2.01117 10.1931 1.75 10.4542 1.75 10.7764V12.5264C1.75 12.8486 2.01117 13.1097 2.33333 13.1097H5.25C5.57217 13.1097 5.83333 12.8486 5.83333 12.5264V10.7764C5.83333 10.4542 5.57217 10.1931 5.25 10.1931Z" stroke="black" stroke-opacity="0.7" stroke-linecap="round" stroke-linejoin="round"/>
</svg>
