<svg width="40" height="41" viewBox="0 0 40 41" fill="none" xmlns="http://www.w3.org/2000/svg">
<path d="M0 8.85986C0 4.44158 3.58172 0.859863 8 0.859863H32C36.4183 0.859863 40 4.44159 40 8.85986V32.8599C40 37.2781 36.4183 40.8599 32 40.8599H8C3.58172 40.8599 0 37.2781 0 32.8599V8.85986Z" fill="black" fill-opacity="0.1"/>
<path d="M24.6 13.8599H27.0547L21.6933 19.7896L28 27.8599H23.0633L19.194 22.9665L14.7713 27.8599H12.3127L18.046 21.5158L12 13.8599H17.062L20.556 18.3325L24.6 13.8599ZM23.738 26.4395H25.0973L16.3213 15.206H14.8613L23.738 26.4395Z" fill="black"/>
</svg>
