<svg width="1440" height="452" viewBox="0 0 1440 452" fill="none" xmlns="http://www.w3.org/2000/svg">
<path d="M1416.14 4.28705L1404.95 1M1416.14 4.28705H1382.99L1372.33 1M1416.14 4.28705L1427.69 7.6825M1416.14 4.28705H1439.61V7.68045M1404.95 1H1409.02L1413.05 1.00818L1416.99 1.02864L1420.81 1.06955L1424.47 1.13091L1427.92 1.22705L1431.12 1.36205L1434.1 1.53182L1436.65 1.76705L1438.97 2.04114L1439.61 2.13727V4.285M1404.95 1H1372.33M1427.69 7.6825L1393.99 7.68045M1427.69 7.6825L1439.61 11.1823M1427.69 7.6825L1439.61 7.68045M1372.33 1H1339.72M1339.72 1H1307.1M1339.72 1L1349.84 4.28705M1307.1 1H1274.48M1307.1 1L1316.69 4.28705M1274.48 1H1241.87M1274.48 1L1283.54 4.28705M1241.87 1H1209.25M1241.87 1L1250.39 4.28705M1209.25 1H1176.63M1209.25 1L1217.24 4.28705M1176.63 1H1144.02M1176.63 1L1184.09 4.28705H1150.94M1144.02 1H1111.4M1144.02 1L1150.94 4.28705M1111.4 1H1078.78M1111.4 1L1117.79 4.28705M1150.94 4.28705H1117.79M1150.94 4.28705L1152.71 5.12568L1153.6 5.545L1158.1 7.68045M1078.78 1H1046.17M1078.78 1L1084.64 4.28705M1117.79 4.28705H1084.64M1117.79 4.28705L1124.4 7.68045M1046.17 1H1013.55M1046.17 1L1051.49 4.28705H1084.64M1084.64 4.28705L1086.14 5.12568L1086.89 5.54705L1090.7 7.68045M1013.55 1H980.933M1013.55 1L1014.73 1.81205L1016.53 3.03932L1018.34 4.28705M980.933 1H948.317M980.933 1L981.985 1.81205L985.194 4.28705M948.317 1H915.7M948.317 1L952.045 4.28705M985.194 4.28705H952.045M985.194 4.28705L989.598 7.68045M915.7 1H883.083M915.7 1L916.886 2.21909L918.088 3.45455L918.491 3.86977L918.896 4.28705M952.045 4.28705L952.52 4.70636L952.996 5.12773L953.475 5.54705L955.898 7.68045M883.083 1H850.467M883.083 1L884.072 2.21909L884.404 2.62818L884.738 3.04136L885.747 4.28705M850.467 1H817.85M850.467 1L852.598 4.28705M817.85 1L818.047 1.405L818.244 1.81205L819.245 3.86977L819.448 4.28705M817.85 1H785.234M852.598 4.28705H819.448M852.598 4.28705L852.869 4.70636L853.141 5.12773L853.415 5.54705L854.798 7.68045M819.448 4.28705L821.099 7.68045M785.234 1H752.616M785.234 1L786.299 4.28705M752.616 1H720M752.616 1L752.814 2.21909L753.149 4.285M720 1H687.384M720 1V4.28705M753.149 4.285H786.299M753.149 4.285H720M753.149 4.285L753.7 7.68045M687.384 1H654.766M687.384 1L687.186 2.21909L686.851 4.285H653.701M720 4.28705H686.851L686.3 7.68455M720 4.28705V7.68045M654.766 1H622.15M654.766 1L653.701 4.28705M622.15 1L621.953 1.405L621.756 1.81205L620.755 3.86977L620.552 4.28705M622.15 1H589.534M589.534 1H556.916M589.534 1L587.673 3.86977L587.402 4.28705M556.916 1H524.3M556.916 1L555.928 2.21909L555.596 2.62818L554.927 3.45455L554.591 3.86977L554.253 4.28705M587.402 4.28705H554.253M587.402 4.28705L587.131 4.70636L586.859 5.12773L586.585 5.54705L585.201 7.68045M524.3 1H491.683M524.3 1L523.114 2.21909L521.913 3.45455L521.509 3.86977L521.104 4.28705M554.253 4.28705L553.574 5.12568L552.198 6.82341L551.501 7.68045M491.683 1H459.067M491.683 1L487.955 4.28705L487.48 4.70432L484.102 7.68045M459.067 1H426.45M459.067 1L458.015 1.81205L454.806 4.28705M426.45 1H393.833M426.45 1L421.656 4.28705M454.806 4.28705H421.656M454.806 4.28705L454.263 4.70636L450.403 7.68045M393.833 1H361.217M393.833 1L388.507 4.28705M421.656 4.28705H388.507M421.656 4.28705L420.433 5.12568L419.817 5.54705L416.703 7.68045M361.217 1H328.6M361.217 1L355.357 4.28705M388.507 4.28705H355.357M328.6 1H295.983M328.6 1L322.208 4.28705M355.357 4.28705H322.208M355.357 4.28705L353.863 5.12568L353.11 5.545L349.303 7.68045M295.983 1H263.367M295.983 1L289.059 4.28705M322.208 4.28705H289.059M322.208 4.28705L321.394 4.70636L315.603 7.68045M263.367 1H230.751M263.367 1L255.909 4.28705M289.059 4.28705H255.909M289.059 4.28705L287.292 5.12568L286.403 5.54705L281.904 7.68045M230.751 1H198.133M230.751 1L222.76 4.28705M255.909 4.28705H222.76M255.909 4.28705L248.204 7.6825M198.133 1H165.517M198.133 1L189.61 4.28705M222.76 4.28705H189.61M222.76 4.28705L220.722 5.12568L214.504 7.6825M165.517 1H132.9M165.517 1L156.461 4.28705M189.61 4.28705H156.461M189.61 4.28705L187.437 5.12568L186.342 5.54705L180.805 7.6825M132.9 1H100.283M132.9 1L123.312 4.28705M156.461 4.28705H123.312M156.461 4.28705L147.105 7.6825M100.283 1H67.667M100.283 1L90.163 4.28705M123.312 4.28705H90.163M123.312 4.28705L113.405 7.6825M67.667 1H35.05M67.667 1L57.014 4.28705M90.163 4.28705H57.014M90.163 4.28705L79.705 7.6825M35.05 1H30.98L26.952 1.00818L23.007 1.02864L19.187 1.06955L15.532 1.13091L12.082 1.22705L8.877 1.36205L5.902 1.53182L3.35 1.76705L1.026 2.04318L0.388 2.13727V4.285V7.68045M35.05 1L23.864 4.28705M57.014 4.28705H23.864M23.864 4.28705L12.306 7.6825M23.864 4.28705H0.388M79.705 7.6825L68.895 11.1925M79.705 7.6825H113.405M79.705 7.6825H46.005L54.295 5.12364L57.014 4.285M113.405 7.6825L103.164 11.1905M113.405 7.6825H147.105M214.504 7.6825L205.97 11.1905M214.504 7.6825H248.204M214.504 7.6825H180.805M248.204 7.6825L240.239 11.1905M248.204 7.6825L281.904 7.68045M349.303 7.68045L343.045 11.1905M349.303 7.68045L383.003 7.6825M349.303 7.68045H315.603M388.507 4.285L387.828 4.70432L387.148 5.12568L383.003 7.6825M383.003 7.6825L379.47 9.86091L377.313 11.1905M383.003 7.6825L416.703 7.68045M484.102 7.68045L480.119 11.1905M484.102 7.68045H517.802M484.102 7.68045H450.403M521.104 4.285H487.955H454.806M521.104 4.285L520.289 5.12364L519.878 5.545L519.467 5.97045L517.802 7.68045M521.104 4.285H554.253M517.802 7.68045L515.682 9.86091L514.388 11.1905M517.802 7.68045H551.501M620.552 4.285H653.701M620.552 4.285H587.402M620.552 4.285L618.901 7.68045M653.701 4.285L653.566 4.70432L653.43 5.12568L653.293 5.545L652.879 6.82136L652.601 7.68045M618.901 7.68045L618.479 8.54773L617.841 9.86091L617.41 10.7445L617.194 11.1905M618.901 7.68045H652.601M618.901 7.68045H585.201M652.601 7.68045L652.178 8.98341L651.607 10.7445L651.463 11.1905M652.601 7.68045L686.3 7.68455M786.299 4.285L786.434 4.70432L786.57 5.12568L786.707 5.545L787.399 7.68045M786.299 4.285H819.448M753.7 7.68045L753.77 8.11614L753.84 8.54977L753.911 8.98545L753.982 9.42318L754.054 9.86295L754.269 11.1905M753.7 7.68045H787.399M753.7 7.68045H720M787.399 7.68045L787.822 8.98341L788.393 10.7445L788.537 11.1905M787.399 7.68045H821.099M885.747 4.285H918.896M885.747 4.285H852.598M885.747 4.285L886.426 5.12364L887.802 6.82136L888.149 7.25091L888.499 7.68045M918.896 4.285L919.711 5.12364L920.122 5.545L920.534 5.97045L922.198 7.68045M918.896 4.285H952.045M888.499 7.68045L889.201 8.54773L891.344 11.1905M888.499 7.68045H922.198M888.499 7.68045H854.798M922.198 7.68045L924.318 9.86091L925.612 11.1905M922.198 7.68045H955.898M1018.34 4.285H1051.49L1052.17 4.70432L1052.85 5.12568L1057 7.6825M1018.34 4.285H985.194M1018.34 4.285L1019.57 5.12364L1020.18 5.545L1023.3 7.68045M1023.3 7.68045L1027.77 10.7445L1028.42 11.1905M1023.3 7.68045L1057 7.6825M1023.3 7.68045H989.598M1057 7.6825L1060.53 9.86091L1062.69 11.1905M1057 7.6825L1090.7 7.68045M1158.1 7.68045L1165.49 11.1905M1158.1 7.68045H1191.8M1158.1 7.68045H1124.4M1191.8 7.68045L1184.09 4.285H1217.24M1191.8 7.68045L1199.76 11.1905M1191.8 7.68045H1225.5M1217.24 4.285L1219.28 5.12364L1225.5 7.68045M1217.24 4.285H1250.39M1283.54 4.285H1316.69M1283.54 4.285H1250.39M1283.54 4.285L1292.89 7.68045M1316.69 4.285L1326.6 7.68045M1316.69 4.285H1349.84M1250.39 4.285L1252.56 5.12364L1253.66 5.545L1259.2 7.68045M1292.89 7.68045L1302.57 11.1905M1292.89 7.68045H1259.2M1292.89 7.68045H1326.6M1326.6 7.68045L1336.84 11.1905M1326.6 7.68045H1360.29M1349.84 4.285L1360.29 7.68045M1349.84 4.285H1382.99L1385.7 5.12364L1393.99 7.68045M0.271 35.02H0.388M33.637 35.02L46.293 30.6836M33.637 35.02L20.495 39.5241M33.637 35.02H71.767L109.899 35.018M33.637 35.02H0.387M46.293 30.6836H8.865L21.74 26.5027M46.293 30.6836L58.491 26.5027L70.255 22.4691M46.293 30.6836H83.72M0.388 30.6816H8.865L0.388 33.4327M0.388 30.6816V33.4307V35.0159V39.522V44.2M0.388 30.6816V26.4986V22.467V21.7491V18.5786M46.14 18.5786H81.607M46.14 18.5786L57.713 14.8211M46.14 18.5786H10.676M46.14 18.5786L34.158 22.4691M81.607 18.5786L92.57 14.8211M81.607 18.5786L70.255 22.4691M81.607 18.5786H117.074M57.713 14.8211H92.57M57.713 14.8211L68.894 11.1905M57.713 14.8211H22.857M10.676 18.5786L22.857 14.8211M10.676 18.5786H0.388M10.676 18.5786L0.388 21.7511M34.158 22.4691H70.255M34.158 22.4691L21.741 26.5007M34.158 22.4691H0.388M92.57 14.8211H127.428M92.57 14.8211L103.164 11.1905M70.255 22.4691L106.352 22.4711M22.857 14.8211L34.627 11.1905M22.857 14.8211H0.387M127.428 14.8211L117.074 18.5807M127.428 14.8211H162.285M127.428 14.8211L137.433 11.1925M103.164 11.1905L137.433 11.1925M103.164 11.1905L68.895 11.1925M0.022 103.477H0.388M0.388 103.477H30.79M0.388 103.477V96.2855M0.388 103.477V111.029V116.875M30.79 103.477L47.11 96.2855M30.79 103.477L13.66 111.025M30.79 103.477H80.02M47.11 96.2855L62.676 89.4291M47.11 96.2855H95.174M47.11 96.2855H0.388M13.66 111.025H64.112M13.66 111.025H0.388M13.66 111.025L0.388 116.875M80.02 103.477L95.174 96.2855M80.02 103.477L64.112 111.025M80.02 103.477H129.249M62.676 89.4291H15.724M62.676 89.4291L77.537 82.8816M62.676 89.4291L109.628 89.427M95.174 96.2855L109.628 89.427M95.174 96.2855H143.238M0.388 96.2855V95.7352M15.724 89.4291L31.647 82.8795M15.724 89.4291H0.388M15.724 89.4291L0.388 95.7352M31.647 82.8795L46.865 76.6225M31.647 82.8795L77.537 82.8816M0.388 89.4291V95.7352M0.388 89.4291V82.8795V77.2402M46.865 76.6225H91.741M46.865 76.6225L61.425 70.6334M46.865 76.6225H1.99M91.741 76.6225L105.331 70.6334M91.741 76.6225L77.537 82.8816M91.741 76.6225H136.617M61.425 70.6334H105.331M61.425 70.6334H17.52M61.425 70.6334L75.37 64.9M1.99 76.6225L17.52 70.6334M1.99 76.6225L0.388 76.6205M1.99 76.6225L0.388 77.2402M105.331 70.6334L118.345 64.9M105.331 70.6334H149.236M77.537 82.8816H123.427M136.617 76.6225L149.236 70.6334M136.617 76.6225L123.427 82.8816M136.617 76.6225H181.492M17.52 70.6334L32.395 64.9M17.52 70.6334H0.388M75.37 64.9H118.345M75.37 64.9H32.395M75.37 64.9L88.735 59.4039M118.345 64.9L130.82 59.4039M118.345 64.9H161.321M149.236 70.6334L161.321 64.9M149.236 70.6334H193.141M101.558 54.1307H142.787M101.558 54.1307L113.87 49.0661M101.558 54.1307H60.328M101.558 54.1307L88.735 59.4039M142.787 54.1307L154.278 49.0661M142.787 54.1307L130.82 59.4039M142.787 54.1307H184.017M113.87 49.0661H154.278M113.87 49.0661H73.461M113.87 49.0661L125.701 44.202M60.328 54.1307H19.1M60.328 54.1307L73.461 49.0661M60.328 54.1307L46.651 59.4039M88.735 59.4039H130.82M88.735 59.4039H46.651M154.278 49.0661L165.321 44.202M154.278 49.0661H194.687M130.82 59.4039H172.904M184.017 54.1307L194.687 49.0661M184.017 54.1307L172.904 59.4039M184.017 54.1307H225.246M73.461 49.0661H33.054M125.701 44.202H165.321M125.701 44.202H86.081M125.701 44.202L137.079 39.522M165.321 44.202L175.941 39.522M165.321 44.202H204.941M194.687 49.0661L204.941 44.202M194.687 49.0661H235.096M148.03 35.018H186.162M148.03 35.018L158.577 30.6816M148.03 35.018H109.899M148.03 35.018L137.079 39.522M186.162 35.018L196.005 30.6816M186.162 35.018L175.941 39.522M186.162 35.018H224.293M158.577 30.6816H196.005M158.577 30.6816H121.149M158.577 30.6816L168.742 26.5007M109.899 35.018L121.149 30.6816M109.899 35.018L98.219 39.522H137.079M137.079 39.522H175.941M196.005 30.6816L205.493 26.5007M196.005 30.6816H233.433M175.941 39.522H214.802M224.293 35.018L233.433 30.6816M224.293 35.018L214.802 39.522M224.293 35.018H262.424M121.149 30.6816H83.721M121.149 30.6816L131.992 26.5007M168.742 26.5007H205.493M168.742 26.5007H131.992M168.742 26.5007L178.546 22.4691M205.493 26.5007L214.642 22.4691M205.493 26.5007H242.243M233.433 30.6816L242.243 26.5007M233.433 30.6816H270.862M188.006 18.5786H223.473M188.006 18.5786L197.142 14.8211M188.006 18.5786H152.541M188.006 18.5786L178.546 22.4691M223.473 18.5786L231.999 14.8211M223.473 18.5786L214.642 22.4691M223.473 18.5786H258.939M197.142 14.8211H231.999M197.142 14.8211L205.97 11.1905M197.142 14.8211H162.285M178.546 22.4691H214.642M178.546 22.4691H142.449M231.999 14.8211H266.857M231.999 14.8211L240.239 11.1905M214.642 22.4691H250.74M258.939 18.5786L266.857 14.8211M258.939 18.5786L250.74 22.4691M258.939 18.5786H294.405M205.97 11.1905H240.239M205.97 11.1905L171.701 11.1925M162.285 14.8211L152.541 18.5807M162.285 14.8211L171.701 11.1925M266.857 14.8211H301.714M266.857 14.8211L274.507 11.1905M240.239 11.1905H274.507M25.609 228.148L48.579 213.979M25.609 228.148L1.012 243.321M25.609 228.148H95.049M25.609 228.148H0.388M48.579 213.979L70.078 200.716M48.579 213.979H115.72M48.579 213.979H0.388M1.012 243.321L72.911 243.319M1.012 243.321L0.388 243.319M1.012 243.321L0.388 243.703M0.388 228.148V243.319M0.388 228.148V213.979M70.078 200.716L90.242 188.276L109.193 176.584M70.078 200.716H135.07M70.078 200.716H5.085M115.72 213.979L135.07 200.716M115.72 213.979L95.048 228.148M115.72 213.979L182.863 213.977M0.388 213.979V203.349M48.112 176.588H109.193M48.112 176.588L67.74 165.577M48.112 176.588L27.266 188.276H0.388M48.112 176.584H0.388M109.193 176.584L127.036 165.579M109.193 176.584H170.274M127.036 165.579L67.74 165.581M127.036 165.579L143.868 155.197M127.036 165.579H186.333M170.274 176.584L186.333 165.579M170.274 176.584L153.217 188.278M170.274 176.584L231.355 176.586M67.74 165.581H8.444L28.641 155.197M67.74 165.581L86.255 155.197H143.868M143.868 155.197L159.769 145.389M143.868 155.197L201.481 155.195M186.333 165.579L201.481 155.195M186.333 165.579H245.629M120.298 136.104H174.817M120.298 136.104L135.985 127.309M120.298 136.104H65.78M120.298 136.104L103.746 145.389M174.817 136.104L189.077 127.311M174.817 136.104L159.769 145.389M174.817 136.104L229.335 136.106L283.853 136.102M135.985 127.309L189.077 127.311M135.985 127.309L82.893 127.311L65.78 136.104M135.985 127.309L150.871 118.961M65.78 136.104L11.261 136.102M65.78 136.104L47.723 145.389M103.746 145.389H159.769M103.746 145.389H47.723M189.077 127.311L202.611 118.961M189.077 127.311L242.169 127.309M159.769 145.389L215.792 145.387M150.871 118.961H202.611M150.871 118.961L99.133 118.959M150.871 118.961L165.018 111.025M202.611 118.961L215.471 111.025M202.611 118.961L254.349 118.959M242.169 127.309L254.349 118.959M242.169 127.309L229.335 136.102L215.792 145.387M242.169 127.309H295.262M178.478 103.477H227.708M178.478 103.477L191.301 96.2855M178.478 103.477H129.249M178.478 103.477L165.018 111.025M227.708 103.477L239.365 96.2855M227.708 103.477L215.471 111.025M227.708 103.477H276.937M191.301 96.2855H239.365M191.301 96.2855H143.238M191.301 96.2855L203.531 89.4291M129.249 103.477L143.238 96.2855M129.249 103.477L114.565 111.025H165.018M165.018 111.025H215.471M239.365 96.2855L250.483 89.4291M239.365 96.2855H287.428M215.471 111.025H265.924M276.937 103.477L287.428 96.2855M276.937 103.477L265.924 111.025M276.937 103.477H326.166M143.238 96.2855L156.579 89.4291M203.531 89.4291H250.483M203.531 89.4291H156.579M203.531 89.4291L215.208 82.8816M250.483 89.4291L261.098 82.8816M250.483 89.4291L297.435 89.427M287.428 96.2855L297.435 89.427M287.428 96.2855H335.492M226.368 76.6205H271.244M226.368 76.6205L237.046 70.6334M226.368 76.6205L181.492 76.6225M226.368 76.6205L215.208 82.8816M271.244 76.6205L280.951 70.6334M271.244 76.6205L261.098 82.8816M271.244 76.6205L316.119 76.6225M237.046 70.6334H280.951M237.046 70.6334H193.141M237.046 70.6334L247.271 64.9M181.492 76.6225L193.141 70.6334M181.492 76.6225L169.317 82.8795M215.208 82.8816H261.098M215.208 82.8816L169.317 82.8795M280.951 70.6334L290.247 64.9M280.951 70.6334H324.856M261.098 82.8816H306.988M316.119 76.6225L324.856 70.6334M316.119 76.6225L306.988 82.8816M316.119 76.6225H360.995M193.141 70.6334L204.296 64.9M247.271 64.9H290.247M247.271 64.9H204.296M247.271 64.9L257.073 59.4039M290.247 64.9L299.157 59.4039M290.247 64.9H333.222M324.856 70.6334L333.222 64.9M324.856 70.6334H368.76M266.476 54.1307H307.705M266.476 54.1307L275.504 49.0661M266.476 54.1307H225.246M266.476 54.1307L257.073 59.4039M307.705 54.1307L308.75 53.4864L315.913 49.0682M307.705 54.1307L299.157 59.4039M307.705 54.1307H348.935M275.504 49.0661L315.913 49.0682M275.504 49.0661H235.096M275.504 49.0661L284.181 44.202M225.246 54.1307L235.096 49.0661M225.246 54.1307L214.988 59.4039M257.073 59.4039H299.157M257.073 59.4039H214.988M315.913 49.0682L323.801 44.202M315.913 49.0682L356.322 49.0661M299.157 59.4039H341.241M348.935 54.1307L356.322 49.0661M348.935 54.1307L341.241 59.4039M348.935 54.1307H390.164M235.096 49.0661L244.561 44.202M284.181 44.202H323.801M284.181 44.202H244.561M284.181 44.202L292.525 39.522M323.801 44.202L330.454 40.0968L331.386 39.522M323.801 44.202H363.421M356.322 49.0661L363.421 44.202M356.322 49.0661H396.731M300.555 35.018H338.687M300.555 35.018L308.29 30.6816M300.555 35.018H262.424M300.555 35.018L292.525 39.522M338.687 35.018L345.718 30.6816M338.687 35.018L335.982 36.687L331.386 39.522M338.687 35.018H376.818M308.29 30.6816H345.718M308.29 30.6816H270.862M308.29 30.6816L315.744 26.5007M262.424 35.018L269.824 31.2134L270.862 30.6816M262.424 35.018L253.663 39.522M292.525 39.522H331.386M292.525 39.522H253.663M345.718 30.6816L352.495 26.5007M345.718 30.6816H383.146M331.386 39.522H370.247M376.818 35.018L383.146 30.6816M376.818 35.018L375.198 36.1286L370.247 39.522M376.818 35.018H414.95M270.862 30.6816L278.994 26.5007M315.744 26.5007H352.495M315.744 26.5007H278.994M315.744 26.5007L322.934 22.4691M352.495 26.5007L359.03 22.4691M352.495 26.5007H389.245M383.146 30.6816L389.245 26.5007M383.146 30.6816H420.575M329.871 18.5786H365.338M329.871 18.5786L336.571 14.8211M329.871 18.5786H294.405M329.871 18.5786L322.934 22.4691M365.338 18.5786L369.926 15.7477L370.678 15.2834L371.429 14.8211M365.338 18.5786L359.03 22.4691M365.338 18.5786H400.804M336.571 14.8211H371.429M336.571 14.8211L343.045 11.1905M336.571 14.8211H301.714M294.405 18.5786L301.714 14.8211M294.405 18.5786L286.837 22.4691M322.934 22.4691H359.03M322.934 22.4691H286.837M371.429 14.8211H406.286M371.429 14.8211L377.313 11.1905M359.03 22.4691H395.127M400.804 18.5786L406.286 14.8211M400.804 18.5786L395.127 22.4691M400.804 18.5786H436.27M343.045 11.1905H377.313M343.045 11.1905H308.776M301.714 14.8211L308.776 11.1905M406.286 14.8211H441.143M406.286 14.8211L411.582 11.1905M377.313 11.1905H411.582M50.768 389.55H146.373M50.768 389.55L80.872 363.023M50.768 389.55L17.688 418.702M50.768 389.55H0.388M146.373 389.55L172.176 363.023M146.373 389.55L118.019 418.702M146.373 389.55H241.977M80.872 363.023H172.176M80.872 363.023L108.384 338.778M80.872 363.023H0.388M17.688 418.702H118.019M17.688 418.702L0.388 433.949M17.688 418.702H0.388M0.388 389.55V418.702M0.388 389.55V363.023M172.176 363.023L195.758 338.778M172.176 363.023H263.48M118.019 418.702L86.716 450.885M118.019 418.702H218.349M241.977 389.55L263.48 363.023M241.977 389.55L218.349 418.702M241.977 389.55H337.582M108.384 338.778H195.758M108.384 338.778H21.01M108.384 338.778L133.625 316.534M0.388 363.023V354.68M195.758 338.778L217.393 316.534M195.758 338.778H283.132M263.48 363.023L283.132 338.778M263.48 363.023H354.784M156.866 296.055H237.314M156.866 296.055L178.334 277.134M156.866 296.055H76.418M156.866 296.055L133.625 316.534M237.314 296.055L255.715 277.134M237.314 296.055L217.393 316.534M237.314 296.055H317.761M178.334 277.134H255.715M178.334 277.134H100.953M178.334 277.134L198.226 259.607M76.418 296.055L100.953 277.134M76.418 296.055L49.858 316.534M76.418 296.055H0.388M133.625 316.534H217.393M133.625 316.534H49.858M255.715 277.134L272.765 259.607M255.715 277.134H333.096M217.393 316.534H301.161M317.761 296.055L333.096 277.134M317.761 296.055L301.161 316.534M317.761 296.055H398.209M100.953 277.134H23.573M100.953 277.134L123.687 259.607M198.226 259.607H272.765M198.226 259.607H123.687M198.226 259.607L216.708 243.319M272.765 259.607L288.607 243.319M272.765 259.607H347.304M333.096 277.134L347.304 259.607M333.096 277.134H410.477M233.927 228.146H303.365M233.927 228.146L250.005 213.977M233.927 228.146H164.487M233.927 228.146L216.708 243.319M303.365 228.146L317.147 213.977M303.365 228.146L288.607 243.319M303.365 228.146H372.804M250.005 213.977H317.147M250.005 213.977H182.863M250.005 213.977L265.054 200.714M164.487 228.146L95.048 228.148M164.487 228.146L182.863 213.977M164.487 228.146L144.809 243.319M216.708 243.319H288.607M216.708 243.319H144.809M317.147 213.977L330.047 200.714M317.147 213.977H384.29M288.607 243.319H360.506M372.804 228.146L384.29 213.977M372.804 228.146L360.506 243.319M372.804 228.146H442.244M182.863 213.977L200.062 200.716M265.054 200.714H330.047M265.054 200.714L200.062 200.716M265.054 200.714L279.169 188.28H342.145L405.121 188.278M330.047 200.714L342.145 188.276L353.516 176.586M330.047 200.714L395.039 200.716M384.29 213.977L395.039 200.716M384.29 213.977H451.432M292.435 176.586H353.516M292.435 176.586L304.926 165.577M292.435 176.586H231.355M292.435 176.586L279.169 188.276H216.193L231.355 176.586M353.516 176.586L364.222 165.579M353.516 176.586L414.597 176.584M304.926 165.577L364.222 165.579M304.926 165.577L245.629 165.579M304.926 165.577L316.707 155.195M231.355 176.586L245.629 165.579M364.222 165.579L374.321 155.195M364.222 165.579L423.518 165.577M414.597 176.584L423.518 165.577M414.597 176.584L405.121 188.278M414.597 176.584L475.677 176.586M316.707 155.195H374.321M316.707 155.195H259.094M316.707 155.195L327.838 145.387M374.321 155.195L383.862 145.387M374.321 155.195H431.934M423.518 165.577L431.934 155.195M423.518 165.577L482.815 165.579M338.372 136.102H392.89M338.372 136.102L348.354 127.307M338.372 136.102H283.853M338.372 136.102L327.838 145.387M392.89 136.102L401.446 127.309M392.89 136.102L383.862 145.387M392.89 136.102L447.409 136.104M348.354 127.307L401.446 127.309M348.354 127.307L295.262 127.309M348.354 127.307L357.827 118.959M283.853 136.102L295.262 127.309M283.853 136.102L271.816 145.389M327.838 145.387H383.862M327.838 145.387L271.816 145.389M401.446 127.309L409.566 118.959M401.446 127.309L454.539 127.307M383.862 145.387H439.885M447.409 136.104L454.539 127.307M447.409 136.104L439.885 145.387M447.409 136.104L501.927 136.102M295.262 127.309L306.089 118.959M357.827 118.959H409.566M357.827 118.959H306.089M357.827 118.959L366.83 111.025M409.566 118.959L417.282 111.025M409.566 118.959H461.305M454.539 127.307L461.305 118.959M454.539 127.307L507.631 127.309M375.396 103.477H424.625M375.396 103.477L383.556 96.2855M375.396 103.477H326.166M375.396 103.477L366.83 111.025M424.625 103.477L431.619 96.2855M424.625 103.477L417.282 111.025M424.625 103.477H473.854M383.556 96.2855H431.619M383.556 96.2855H335.492M383.556 96.2855L391.338 89.4291M326.166 103.477L335.492 96.2855M326.166 103.477L316.377 111.025M366.83 111.025H417.282M366.83 111.025H316.377M431.619 96.2855L438.29 89.4291M431.619 96.2855H479.682M417.282 111.025H467.735M473.854 103.477L479.682 96.2855M473.854 103.477L467.735 111.025M473.854 103.477H523.083M335.492 96.2855L344.386 89.427M391.338 89.4291H438.29M391.338 89.4291L344.386 89.427M391.338 89.4291L398.769 82.8775H444.659M438.29 89.4291L444.659 82.8775M438.29 89.4291L485.241 89.427M479.682 96.2855L483.188 91.9614L485.241 89.427M479.682 96.2855H527.746M405.87 76.6205H450.747M405.87 76.6205L412.666 70.6334M405.87 76.6205L360.995 76.6225M405.87 76.6205L398.769 82.8816L352.878 82.8795M450.747 76.6205L456.57 70.6334M450.747 76.6205L444.659 82.8816M450.747 76.6205L495.622 76.6225M412.666 70.6334H456.57M412.666 70.6334H368.76M412.666 70.6334L419.173 64.9M360.995 76.6225L368.76 70.6334M360.995 76.6225L352.878 82.8795M456.57 70.6334L462.148 64.9M456.57 70.6334H500.476M495.622 76.6225L500.476 70.6334M495.622 76.6225L494.375 78.1586L490.549 82.8775M368.76 70.6334L376.197 64.898M419.173 64.9H462.148M419.173 64.9L376.197 64.898M419.173 64.9L425.409 59.4039M462.148 64.9L464.849 62.1202L467.494 59.4039M462.148 64.9L505.123 64.898M500.476 70.6334L505.123 64.898M500.476 70.6334H544.38M431.393 54.1307H472.624M431.393 54.1307L437.139 49.0661M431.393 54.1307H390.164M431.393 54.1307L425.409 59.4039M472.624 54.1307L471.993 54.777L467.494 59.4039M472.624 54.1307L477.548 49.0661M472.624 54.1307H513.853M437.139 49.0661H477.548M437.139 49.0661H396.731M437.139 49.0661L442.661 44.202M390.164 54.1307L396.731 49.0661M390.164 54.1307L383.326 59.4018M425.409 59.4039H467.494M425.409 59.4039L383.326 59.4018M467.494 59.4039L509.579 59.4018M477.548 49.0661L482.281 44.202M477.548 49.0661H517.957M513.853 54.1307L517.957 49.0641M513.853 54.1307L509.579 59.4018M513.853 54.1307H555.082M396.731 49.0661L403.041 44.202M442.661 44.202H482.281M442.661 44.202H403.041M442.661 44.202L447.971 39.522M482.281 44.202L486.832 39.522M482.281 44.202L521.9 44.2M453.081 35.018H491.212M453.081 35.018L458.003 30.6816M453.081 35.018H414.95M453.081 35.018L447.971 39.522M491.212 35.018L495.431 30.6816M491.212 35.018L489.589 36.687L488.494 37.812L486.832 39.522M491.212 35.018H529.343M458.003 30.6816H495.431M458.003 30.6816H420.575M458.003 30.6816L462.746 26.5007M414.95 35.018L420.575 30.6816M414.95 35.018L409.109 39.52M447.971 39.522H486.832M447.971 39.522L409.109 39.52M495.431 30.6816L496.973 29.0964L497.99 28.0511L499.497 26.5007M495.431 30.6816H532.859M486.832 39.522H525.693M529.343 35.018L530.235 33.9175L532.859 30.6816M529.343 35.018L528.895 35.5702L528.444 36.1286L527.079 37.812L526.618 38.3786L525.693 39.522M529.343 35.018H567.474M420.575 30.6816L425.996 26.5007M462.746 26.5007H499.497M462.746 26.5007H425.996M462.746 26.5007L466.193 23.4632L467.322 22.4691M499.497 26.5007L501.475 24.4675L503.418 22.4691M499.497 26.5007H536.248M532.859 30.6816L533.29 30.1498L533.718 29.622L535.412 27.5316L536.248 26.5007M532.859 30.6816H570.288M471.737 18.5786H507.202M471.737 18.5786L474.948 15.7477L476 14.8211M471.737 18.5786H436.27M471.737 18.5786L467.882 21.9741L467.322 22.4691M507.202 18.5786L509.956 15.7477L510.407 15.2834L510.857 14.8211M507.202 18.5786L505.327 20.5055L503.418 22.4691M507.202 18.5786H542.669M476 14.8211H510.857M476 14.8211L480.119 11.1905M476 14.8211H441.143M436.27 18.5786L441.143 14.8211M436.27 18.5786L431.224 22.4691M467.322 22.4691H503.418M467.322 22.4691H431.224M510.857 14.8211H545.714M510.857 14.8211L514.388 11.1905M503.418 22.4691H539.515M542.669 18.5786L545.714 14.8211M542.669 18.5786L539.515 22.4691M542.669 18.5786H578.135M480.119 11.1905H514.388M480.119 11.1905H445.851M441.143 14.8211L444.689 12.0864L445.851 11.1905M545.714 14.8211H580.571M545.714 14.8211L547.93 12.0864L548.657 11.1905M514.388 11.1905H548.657M433.186 389.55H528.791M433.186 389.55L446.088 363.023M433.186 389.55H337.582M433.186 389.55L419.009 418.702M528.791 389.55L537.392 363.023M528.791 389.55L519.34 418.702M528.791 389.55H624.396M446.088 363.023H537.392M446.088 363.023H354.784M446.088 363.023L457.879 338.778M337.582 389.55L354.784 363.023M337.582 389.55L318.679 418.702M419.009 418.702H519.34M419.009 418.702L403.358 450.885M419.009 418.702H318.679M537.392 363.023L545.253 338.778M537.392 363.023H628.696M519.34 418.702L508.905 450.885M519.34 418.702H619.67M624.396 389.55L628.696 363.023M624.396 389.55L619.67 418.702M624.396 389.55H720M354.784 363.023L370.505 338.778M457.879 338.778H545.253M457.879 338.778H370.505M457.879 338.778L468.696 316.534M545.253 338.778L552.465 316.534M545.253 338.778H632.626M628.696 363.023L632.626 338.778M628.696 363.023H720M478.657 296.055H559.104M478.657 296.055L487.858 277.134M478.657 296.055H398.209M478.657 296.055L468.696 316.534M559.104 296.055L565.238 277.134M559.104 296.055L552.465 316.534M559.104 296.055H639.553M487.858 277.134H565.238M487.858 277.134H410.477M487.858 277.134L496.383 259.607M398.209 296.055L410.477 277.134M398.209 296.055L384.929 316.534M468.696 316.534H552.465M468.696 316.534H384.929M565.238 277.134L570.922 259.607M565.238 277.134H642.619M552.465 316.534H636.232M639.553 296.055L642.619 277.134M639.553 296.055L636.232 316.534M639.553 296.055H720M410.477 277.134L421.844 259.607M496.383 259.607H570.922M496.383 259.607H421.844M496.383 259.607L504.304 243.319M570.922 259.607L576.203 243.319M570.922 259.607H645.461M642.619 277.134L645.461 259.607M642.619 277.134H720M511.683 228.146H581.122M511.683 228.146L518.574 213.977M511.683 228.146H442.244M511.683 228.146L504.304 243.319M581.122 228.146L585.716 213.977M581.122 228.146L576.203 243.319M581.122 228.146H650.561M518.574 213.977H585.716M518.574 213.977H451.432M518.574 213.977L525.023 200.714M442.244 228.146L451.432 213.977M442.244 228.146L432.405 243.319M504.304 243.319H576.203M504.304 243.319H432.405M585.716 213.977L590.016 200.714M585.716 213.977H652.858M576.203 243.319H648.101M650.561 228.146L652.858 213.977M650.561 228.146L648.101 243.319M650.561 228.146H720M451.432 213.977L460.031 200.716M525.023 200.714H590.016M525.023 200.714L460.031 200.716M525.023 200.714L531.073 188.28H594.048L657.024 188.278M590.016 200.714L594.048 188.276L597.838 176.586M590.016 200.714L655.008 200.716M652.858 213.977L655.008 200.716M652.858 213.977H720M536.758 176.586H597.838M536.758 176.586L542.111 165.577M536.758 176.586H475.677M536.758 176.586L531.073 188.276H468.097L475.677 176.586M597.838 176.586L601.407 165.579M597.838 176.586L658.919 176.584M542.111 165.577L601.407 165.579M542.111 165.577L482.815 165.579M542.111 165.577L547.16 155.195M475.677 176.586L482.815 165.579M601.407 165.579L604.774 155.195M601.407 165.579L660.704 165.577M658.919 176.584L660.704 165.577M658.919 176.584L657.024 188.278M658.919 176.584L720 176.586M482.815 165.579L489.547 155.195M547.16 155.195H604.774M547.16 155.195H489.547M547.16 155.195L551.931 145.387M604.774 155.195L607.954 145.387M604.774 155.195H662.387M660.704 165.577L662.387 155.195M660.704 165.577L720 165.579M556.445 136.102H610.964M556.445 136.102L560.723 127.307M556.445 136.102H501.927M556.445 136.102L551.931 145.387M610.964 136.102L613.815 127.309M610.964 136.102L607.954 145.387M610.964 136.102L665.482 136.104M560.723 127.307L613.815 127.309M560.723 127.307L507.631 127.309M560.723 127.307L564.783 118.959M501.927 136.102L507.631 127.309M501.927 136.102L495.907 145.389M551.931 145.387H607.954M551.931 145.387L495.907 145.389M613.815 127.309L616.522 118.959M613.815 127.309L666.908 127.307M607.954 145.387H663.977M665.482 136.104L666.908 127.307M665.482 136.104L663.977 145.387M665.482 136.104L720 136.102M507.631 127.309L513.044 118.959M564.783 118.959H616.522M564.783 118.959H513.044M564.783 118.959L568.642 111.025M616.522 118.959L619.094 111.025M616.522 118.959H668.261M666.908 127.307L668.261 118.959M666.908 127.307L720 127.309M572.312 103.477H621.541M572.312 103.477L575.809 96.2855M572.312 103.477H523.083M572.312 103.477L568.642 111.025M621.541 103.477L623.873 96.2855M621.541 103.477L619.094 111.025M621.541 103.477H670.771M575.809 96.2855H623.873M575.809 96.2855H527.746M575.809 96.2855L577.079 93.6775L579.145 89.4291M523.083 103.477L527.746 96.2855M523.083 103.477L518.188 111.025M568.642 111.025H619.094M568.642 111.025H518.188M623.873 96.2855L626.097 89.4291M623.873 96.2855H671.937M619.094 111.025H669.547M670.771 103.477L671.937 96.2855M670.771 103.477L669.547 111.025M670.771 103.477H720M527.746 96.2855L532.193 89.4291M579.145 89.4291H626.097M579.145 89.4291H532.193M579.145 89.4291L582.329 82.8795M626.097 89.4291L628.219 82.8816M626.097 89.4291L673.048 89.427M671.937 96.2855L673.048 89.427M671.937 96.2855H720M585.373 76.6205H630.249M585.373 76.6205L588.285 70.6334M585.373 76.6205L540.497 76.6225M585.373 76.6205L583.104 81.2902L582.329 82.8795M630.249 76.6205L630.987 74.3459L632.19 70.6334M630.249 76.6205L628.219 82.8816M630.249 76.6205L675.125 76.6225M588.285 70.6334L588.64 69.9032L591.074 64.9M588.285 70.6334H632.19M588.285 70.6334H544.38M540.497 76.6225L544.38 70.6334M540.497 76.6225L540 77.3875L538.491 79.7132L536.439 82.8795M582.329 82.8795L628.219 82.8816M582.329 82.8795H536.439M632.19 70.6334L632.897 68.455L633.129 67.735L633.362 67.0211L634.049 64.9M632.19 70.6334H676.095M628.219 82.8816H674.11M675.125 76.6225L676.095 70.6334M675.125 76.6225L674.11 82.8816M675.125 76.6225H720M591.074 64.9H634.049M591.074 64.9L548.099 64.898M591.074 64.9L593.747 59.4039M544.38 70.6334L548.099 64.898M634.049 64.9L677.025 64.898M676.095 70.6334L676.213 69.9011L677.025 64.898M676.095 70.6334H720M596.311 54.1307H637.541M596.311 54.1307L597.555 51.5739L597.862 50.9398L598.167 50.3139L598.472 49.688L598.774 49.0661M596.311 54.1307H555.082M596.311 54.1307L593.747 59.4039M637.541 54.1307L638.778 50.3139L638.981 49.688L639.182 49.0661M637.541 54.1307L635.832 59.4039M637.541 54.1307H678.771M598.774 49.0661H639.182M598.774 49.0661H558.365M598.774 49.0661L600.264 46.0041L600.557 45.3986L601.14 44.202M555.082 54.1307L557.557 50.3118L558.365 49.0641M555.082 54.1307L553.816 56.08L552.53 58.062L551.662 59.4039M593.747 59.4039H635.832M593.747 59.4039H551.662M639.182 49.0661L640.176 46.0041L640.372 45.3986L640.566 44.7993L640.76 44.2M639.182 49.0661L679.592 49.0682M635.832 59.4039L634.949 62.1202L634.727 62.8095L634.049 64.8959M635.832 59.4039L677.915 59.4018M678.771 54.1307L679.592 49.0682M678.771 54.1307L678.454 56.08L678.133 58.062L677.915 59.4018M678.771 54.1307H720M601.14 44.202L640.76 44.2M601.14 44.202H561.52M601.14 44.202L603.416 39.522M640.76 44.2L642.277 39.522M640.76 44.2L680.38 44.202M679.592 49.0682L680.38 44.202M679.592 49.0682L720 49.0661H760.409M605.606 35.018H643.738M605.606 35.018L607.716 30.6816M605.606 35.018H567.474M605.606 35.018L605.066 36.1286L604.247 37.812L603.416 39.522M643.738 35.018L643.558 35.5702L642.463 38.9493L642.277 39.522M643.738 35.018L645.144 30.6816M643.738 35.018H681.869M607.716 30.6816H645.144M607.716 30.6816H570.288M607.716 30.6816L609.749 26.5007M567.474 35.018L569.941 31.2134L570.288 30.6816M567.474 35.018L567.116 35.5702L566.755 36.1286L566.393 36.687L564.555 39.52M603.416 39.522H642.277M603.416 39.522L564.555 39.52M642.277 39.522H681.139M645.144 30.6816L645.658 29.0964L645.827 28.5707L645.997 28.0511L646.499 26.5007M645.144 30.6816H682.572M681.869 35.018L682.399 31.7493L682.485 31.2134L682.572 30.6816M681.869 35.018L681.139 39.522M681.869 35.018H720M570.288 30.6816L572.998 26.5007M609.749 26.5007H646.499M609.749 26.5007H572.998M609.749 26.5007L610.245 25.478L610.492 24.9727L610.737 24.4675L610.983 23.9643L611.225 23.4632L611.468 22.9661L611.709 22.4691M646.499 26.5007L646.665 25.9893L646.83 25.478L647.159 24.4675L647.321 23.9643L647.484 23.4632L647.645 22.9641L647.806 22.4691M646.499 26.5007H683.25M682.572 30.6816L683.25 26.5007M682.572 30.6816H720M613.602 18.5786H649.067M613.602 18.5786L614.978 15.7477L615.428 14.8211M613.602 18.5786H578.135M613.602 18.5786L612.899 20.0207L612.664 20.5055L612.426 20.9943L611.709 22.4691M649.067 18.5786L649.222 18.102L649.529 17.153L649.834 16.2141L650.285 14.8211M649.067 18.5786L648.442 20.5055L648.285 20.9943L647.966 21.9761L647.806 22.4691M649.067 18.5786H684.534M615.428 14.8211H650.285M615.428 14.8211L616.976 11.6384L617.194 11.1905M615.428 14.8211H580.571M578.135 18.5786L580.571 14.8211M578.135 18.5786L575.612 22.4691M611.709 22.4691H647.806M611.709 22.4691H575.612M650.285 14.8211L650.435 14.3609L650.584 13.9027L650.732 13.4445L650.879 12.9905L651.318 11.6384L651.463 11.1905M650.285 14.8211H685.143M647.806 22.4691H683.903M684.534 18.5786L685.143 14.8211M684.534 18.5786L683.903 22.4691M684.534 18.5786H720M617.194 11.1905H651.463M617.194 11.1905H582.925M580.571 14.8211L581.759 12.9905L582.636 11.6384L582.925 11.1905M651.463 11.1905H685.732M685.143 14.8211L685.217 14.3609L685.292 13.9027L685.366 13.4445L685.732 11.1905M685.143 14.8211H720M815.604 389.55H911.209M815.604 389.55L811.304 363.023M815.604 389.55H720M815.604 389.55L820.33 418.702M911.209 389.55L902.608 363.023M911.209 389.55L920.66 418.702M911.209 389.55H1006.81M811.304 363.023H902.608M811.304 363.023H720M811.304 363.023L807.374 338.778M720 389.55V363.023M720 389.55V418.702M820.33 418.702H920.66M820.33 418.702L825.548 450.885M820.33 418.702H720M902.608 363.023L894.747 338.778M902.608 363.023H993.912M920.66 418.702L931.095 450.885M920.66 418.702H1020.99M1006.81 389.55L993.912 363.023M1006.81 389.55L1020.99 418.702M1006.81 389.55H1102.42M720 363.023V338.778M807.374 338.778H894.747M807.374 338.778H720M807.374 338.778L803.768 316.534M894.747 338.778L887.536 316.534M894.747 338.778H982.121M993.912 363.023L982.121 338.778M993.912 363.023H1085.22M800.447 296.055H880.896M800.447 296.055L797.381 277.134M800.447 296.055H720M800.447 296.055L803.768 316.534M880.896 296.055L874.762 277.134M880.896 296.055L887.536 316.534M880.896 296.055H961.343M797.381 277.134H874.762M797.381 277.134H720M797.381 277.134L794.539 259.607M720 296.055V277.134M720 296.055V316.534M803.768 316.534H887.536M803.768 316.534H720M874.762 277.134L869.078 259.607M874.762 277.134H952.142M887.536 316.534H971.304M961.343 296.055L952.142 277.134M961.343 296.055L971.304 316.534M961.343 296.055H1041.79M720 277.134V259.607M794.539 259.607H869.078M794.539 259.607H720M794.539 259.607L791.899 243.319M869.078 259.607L863.797 243.319M869.078 259.607H943.617M952.142 277.134L943.617 259.607M952.142 277.134H1029.52M789.439 228.146H858.878M789.439 228.146L787.142 213.977M789.439 228.146H720M789.439 228.146L791.899 243.319M858.878 228.146L854.284 213.977M858.878 228.146L863.797 243.319M858.878 228.146H928.317M787.142 213.977H854.284M787.142 213.977H720M787.142 213.977L784.992 200.714M720 228.146V213.977M720 228.146V243.319M791.899 243.319H863.797M791.899 243.319H720M854.284 213.977L849.985 200.714M854.284 213.977H921.426M863.797 243.319H935.696M928.317 228.146L921.426 213.977M928.317 228.146L935.696 243.319M928.317 228.146H997.756M720 213.977V200.712M784.992 200.714H849.985M784.992 200.714L720 200.716M784.992 200.714L782.976 188.28H845.952L908.927 188.278M849.985 200.714L845.952 188.276L842.162 176.586M849.985 200.714L914.977 200.716M921.426 213.977L914.977 200.716M921.426 213.977H988.568M781.081 176.586H842.162M781.081 176.586L779.296 165.577M781.081 176.586H720M781.081 176.586L782.976 188.276H720V176.586M842.162 176.586L838.593 165.579M842.162 176.586L903.242 176.584M779.296 165.577L838.593 165.579M779.296 165.577L720 165.579M779.296 165.577L777.613 155.195M720 176.586V165.579M838.593 165.579L835.226 155.195M838.593 165.579L897.889 165.577M903.242 176.584L897.889 165.577M903.242 176.584L908.927 188.278M903.242 176.584L964.323 176.586M720 165.579V155.195M777.613 155.195H835.226M777.613 155.195H720M777.613 155.195L776.023 145.387M835.226 155.195L832.046 145.387M835.226 155.195H892.84M897.889 165.577L892.84 155.195M897.889 165.577L957.185 165.579M774.518 136.102H829.036M774.518 136.102L773.092 127.307M774.518 136.102H720M774.518 136.102L776.023 145.387M829.036 136.102L826.185 127.309M829.036 136.102L832.046 145.387M829.036 136.102L883.555 136.104M773.092 127.307L826.185 127.309M773.092 127.307L720 127.309M773.092 127.307L771.739 118.959M720 136.102V127.309M720 136.102V145.389M776.023 145.387H832.046M776.023 145.387L720 145.389M826.185 127.309L823.478 118.959M826.185 127.309L879.277 127.307M832.046 145.387H888.069M883.555 136.104L879.277 127.307M883.555 136.104L888.069 145.387M883.555 136.104L938.073 136.102M720 127.309V118.959M771.739 118.959H823.478M771.739 118.959H720M771.739 118.959L770.61 111.997L770.453 111.025M823.478 118.959L820.906 111.025M823.478 118.959H875.217M879.277 127.307L875.217 118.959M879.277 127.307L932.369 127.309M769.229 103.477H818.459M769.229 103.477L768.063 96.2855M769.229 103.477H720M769.229 103.477L770.453 111.025M818.459 103.477L816.127 96.2855M818.459 103.477L820.906 111.025M818.459 103.477H867.688M768.063 96.2855H816.127M768.063 96.2855H720M768.063 96.2855L766.952 89.4291M720 103.477V96.2855M720 103.477V111.025M770.453 111.025H820.906M770.453 111.025H720M816.127 96.2855L813.903 89.4291M816.127 96.2855H864.191M820.906 111.025H871.359M867.688 103.477L864.191 96.2855M867.688 103.477L871.359 111.025M867.688 103.477H916.917M720 96.2855V89.427M766.952 89.4291H813.903M766.952 89.4291L720 89.427M766.952 89.4291L765.89 82.8775H811.781M813.903 89.4291L811.781 82.8775M813.903 89.4291L860.855 89.427M864.191 96.2855L863.342 94.5407L860.855 89.427M864.191 96.2855H912.254M764.875 76.6205H809.751M764.875 76.6205L763.905 70.6334M764.875 76.6205L720 76.6225M764.875 76.6205L765.89 82.8816L720 82.8795M809.751 76.6205L808.048 71.3677L807.81 70.6334M809.751 76.6205L811.781 82.8816M809.751 76.6205L854.627 76.6225M763.905 70.6334L763.787 69.9032L762.975 64.9M763.905 70.6334H807.81M763.905 70.6334H720M720 76.6225V70.6334M720 76.6225V82.8795M807.81 70.6334L807.103 68.455L806.871 67.735L806.638 67.0211L805.951 64.9M807.81 70.6334H851.715M854.627 76.6225L851.715 70.6334M854.627 76.6225L856.897 81.2882L857.671 82.8775M762.975 64.9H805.951M762.975 64.9L720 64.898M762.975 64.9L762.749 63.5009L762.304 60.7539L762.085 59.4039M720 70.6334V64.898M805.951 64.9L848.926 64.898M851.715 70.6334L848.926 64.898M851.715 70.6334H895.62M761.229 54.1307H802.459M761.229 54.1307L760.409 49.0661M761.229 54.1307H720M761.229 54.1307L761.546 56.082L761.653 56.7386L761.759 57.3993L761.975 58.7309L762.085 59.4039M802.459 54.1307L801.222 50.3139L800.817 49.0661M802.459 54.1307L804.168 59.4039M802.459 54.1307H843.689M760.409 49.0661H800.817M760.409 49.0661L759.62 44.202M720 54.1307V49.0641V44.202M720 54.1307V59.4018M762.085 59.4039H804.168M762.085 59.4039L720 59.4018M800.817 49.0661L799.825 46.0041L799.628 45.3986L799.434 44.7993L799.24 44.2M800.817 49.0661L841.226 49.0682M804.168 59.4039L805.051 62.1202L805.273 62.8095L805.951 64.8959M804.168 59.4039L846.253 59.4018M843.689 54.1307L842.138 50.9418L841.833 50.3139L841.528 49.688L841.226 49.0682M843.689 54.1307L845.927 58.7309L846.253 59.4018M843.689 54.1307H884.918M759.62 44.202L799.24 44.2M759.62 44.202H720M759.62 44.202L758.861 39.522M799.24 44.2L797.723 39.522M799.24 44.2L838.86 44.202M841.226 49.0682L840.031 46.6116L839.736 46.0041L839.443 45.3986L838.86 44.202M841.226 49.0682L881.635 49.0661H922.043M758.131 35.018H796.262M758.131 35.018L757.428 30.6816M758.131 35.018H720M758.131 35.018L758.861 39.522M796.262 35.018L796.442 35.5702L797.537 38.9493L797.723 39.522M796.262 35.018L794.856 30.6816M796.262 35.018H834.394M757.428 30.6816H794.856M757.428 30.6816H720M757.428 30.6816L756.751 26.5007M720 35.018V30.6816M720 35.018V39.52M758.861 39.522H797.723M758.861 39.522L720 39.52M797.723 39.522H836.584M794.856 30.6816L794.342 29.0964L794.173 28.5707L794.003 28.0511L793.501 26.5007M794.856 30.6816H832.284M834.394 35.018L832.284 30.6816M834.394 35.018L834.934 36.1286L835.753 37.812L836.584 39.522M834.394 35.018H872.526M720 30.6816V26.5007M756.751 26.5007H793.501M756.751 26.5007H720M756.751 26.5007L756.097 22.4691M793.501 26.5007L793.335 25.9893L792.841 24.4675L792.679 23.9643L792.516 23.4632L792.355 22.9641L792.194 22.4691M793.501 26.5007H830.251M832.284 30.6816L830.251 26.5007M832.284 30.6816H869.712M755.467 18.5786H790.933M755.467 18.5786L754.857 14.8211M755.467 18.5786H720M755.467 18.5786L756.097 22.4691M790.933 18.5786L790.778 18.102L790.47 17.153L790.318 16.6825L790.015 15.7477L789.865 15.2834L789.714 14.8211M790.933 18.5786L791.558 20.5055L791.715 20.9943L792.034 21.9761L792.194 22.4691M790.933 18.5786H826.399M754.857 14.8211L754.783 14.3609L754.708 13.9027L754.634 13.4445L754.269 11.1905M754.857 14.8211H789.714M754.857 14.8211H720M720 18.5786V14.8211M720 18.5786V22.4691M756.097 22.4691H792.194M756.097 22.4691H720M789.714 14.8211H824.572M789.714 14.8211L789.416 13.9007L789.268 13.4445L789.121 12.9905L788.683 11.6384L788.537 11.1905M792.194 22.4691H828.291M826.399 18.5786L825.022 15.7477L824.572 14.8211M826.399 18.5786L827.574 20.9923L828.291 22.4691M826.399 18.5786H861.865M754.269 11.1905H788.537M754.269 11.1905L720 11.1925M720 14.8211V11.1925M824.572 14.8211H859.429M824.572 14.8211L823.242 12.0864L822.806 11.1905M788.537 11.1905H822.806M1198.02 389.55H1293.63M1198.02 389.55L1176.52 363.023M1198.02 389.55H1102.42M1198.02 389.55L1221.65 418.702M1293.63 389.55L1267.82 363.023M1293.63 389.55L1321.98 418.702M1293.63 389.55H1389.23M1176.52 363.023H1267.82M1176.52 363.023H1085.22M1176.52 363.023L1156.87 338.778M1102.42 389.55L1085.22 363.023M1102.42 389.55L1121.32 418.702M1221.65 418.702H1321.98M1221.65 418.702L1247.74 450.885M1221.65 418.702H1121.32M1267.82 363.023L1244.24 338.778M1267.82 363.023H1359.13M1321.98 418.702L1353.28 450.885M1321.98 418.702H1422.31M1389.23 389.55L1359.13 363.023M1389.23 389.55L1422.31 418.702M1389.23 389.55H1439.61M1085.22 363.023L1069.49 338.778M1156.87 338.778H1244.24M1156.87 338.778H1069.49M1156.87 338.778L1138.84 316.534M1244.24 338.778L1222.61 316.534M1244.24 338.778H1331.62M1359.13 363.023L1331.62 338.778M1359.13 363.023H1439.61M1122.24 296.055H1202.69M1122.24 296.055L1106.9 277.134M1122.24 296.055H1041.79M1122.24 296.055L1138.84 316.534M1202.69 296.055L1184.29 277.134M1202.69 296.055L1222.61 316.534M1202.69 296.055H1283.13M1106.9 277.134H1184.29M1106.9 277.134H1029.52M1106.9 277.134L1092.7 259.607M1041.79 296.055L1029.52 277.134M1041.79 296.055L1055.07 316.534M1138.84 316.534H1222.61M1138.84 316.534H1055.07M1184.29 277.134L1167.23 259.607M1184.29 277.134H1261.67M1222.61 316.534H1306.37M1283.13 296.055L1261.67 277.134M1283.13 296.055L1306.37 316.534M1283.13 296.055H1363.58M1029.52 277.134L1018.16 259.607M1092.7 259.607H1167.23M1092.7 259.607H1018.16M1092.7 259.607L1079.49 243.319M1167.23 259.607L1151.39 243.319M1167.23 259.607H1241.77M1261.67 277.134L1241.77 259.607M1261.67 277.134H1339.05M1067.2 228.146H1136.63M1067.2 228.146L1055.71 213.977M1067.2 228.146H997.756M1067.2 228.146L1079.49 243.319M1136.63 228.146L1122.85 213.977M1136.63 228.146L1151.39 243.319M1136.63 228.146H1206.07M1055.71 213.977H1122.85M1055.71 213.977H988.568M1055.71 213.977L1044.96 200.714M997.756 228.146L988.568 213.977M997.756 228.146L1007.6 243.319M1079.49 243.319H1151.39M1079.49 243.319H1007.6M1122.85 213.977L1109.95 200.714M1122.85 213.977H1189.99M1151.39 243.319H1223.29M1206.07 228.146L1189.99 213.977M1206.07 228.146L1223.29 243.319M1206.07 228.146L1275.51 228.148M988.568 213.977L979.969 200.714M1044.96 200.714H1109.95M1044.96 200.714H979.969M1044.96 200.714L1034.88 188.276M1109.95 200.714L1097.86 188.276M1109.95 200.714H1174.95M1189.99 213.977L1174.95 200.714M1189.99 213.977L1257.14 213.979M1025.4 176.586H1086.48M1025.4 176.586L1016.48 165.577M1025.4 176.586H964.323M1025.4 176.586L1034.88 188.276M1086.48 176.586L1075.78 165.579M1086.48 176.586L1097.86 188.276M1086.48 176.586L1147.57 176.584M1016.48 165.577L1075.78 165.579M1016.48 165.577L957.185 165.579M1016.48 165.577L1008.07 155.195M964.323 176.586L957.185 165.579M964.323 176.586L971.903 188.276H1034.88M1034.88 188.276H1097.86M1075.78 165.579L1065.68 155.195M1075.78 165.579L1135.07 165.577M1097.86 188.276H1160.83M1147.57 176.584L1135.07 165.577M1147.57 176.584L1160.83 188.276M1147.57 176.584H1208.65M957.185 165.579L950.453 155.195M1008.07 155.195H1065.68M1008.07 155.195H950.453M1008.07 155.195L1000.12 145.387M1065.68 155.195L1056.14 145.387M1065.68 155.195H1123.29M1135.07 165.577L1123.29 155.195M1135.07 165.577H1194.37L1180.91 155.195M992.591 136.102H1047.11M992.591 136.102L985.461 127.307M992.591 136.102H938.073M992.591 136.102L1000.12 145.387M1047.11 136.102L1038.55 127.309M1047.11 136.102L1056.14 145.387M1047.11 136.102L1101.63 136.104M985.461 127.307L1038.55 127.309M985.461 127.307L932.369 127.309M985.461 127.307L978.695 118.959M938.073 136.102L936.618 133.86L932.369 127.309M938.073 136.102L944.093 145.387M1000.12 145.387H1056.14M1000.12 145.387H944.093M1038.55 127.309L1030.43 118.959M1038.55 127.309L1091.65 127.307M1056.14 145.387H1112.16M1101.63 136.104L1091.65 127.307M1101.63 136.104L1112.16 145.387M1101.63 136.104H1156.15M932.369 127.309L926.956 118.959M978.695 118.959H1030.43M978.695 118.959H926.956M978.695 118.959L972.265 111.025M1030.43 118.959L1022.72 111.025M1030.43 118.959H1082.17M1091.65 127.307L1082.17 118.959M1091.65 127.307H1144.74L1133.91 118.959M966.146 103.477H1015.38M966.146 103.477L960.318 96.2855M966.146 103.477H916.917M966.146 103.477L972.265 111.025M1015.38 103.477L1008.38 96.2855M1015.38 103.477L1022.72 111.025M1015.38 103.477H1064.6M960.318 96.2855H1008.38M960.318 96.2855H912.254M960.318 96.2855L954.759 89.4291M916.917 103.477L912.254 96.2855M916.917 103.477L921.812 111.025M972.265 111.025H1022.72M972.265 111.025H921.812M1008.38 96.2855L1001.71 89.4291M1008.38 96.2855H1056.44M1022.72 111.025H1073.17M1064.6 103.477L1056.44 96.2855M1064.6 103.477L1073.17 111.025M1064.6 103.477H1113.83M912.254 96.2855L907.807 89.4291M954.759 89.4291H1001.71M954.759 89.4291H907.807M954.759 89.4291L949.451 82.8795M1001.71 89.4291L995.341 82.8816M1001.71 89.4291L1048.66 89.427M1056.44 96.2855L1048.66 89.427M1056.44 96.2855H1104.51M944.378 76.6205L945 77.3895L945.626 78.1607L949.451 82.8795M944.378 76.6205H989.254M944.378 76.6205L939.525 70.6334M944.378 76.6205L899.503 76.6225M949.451 82.8795L995.341 82.8816M949.451 82.8795H903.561M989.254 76.6205L983.43 70.6334M989.254 76.6205L995.341 82.8816M989.254 76.6205L1034.13 76.6225M939.525 70.6334H983.43M939.525 70.6334H895.62M939.525 70.6334L934.877 64.9M899.503 76.6225L895.62 70.6334M899.503 76.6225L901.509 79.7132L903.561 82.8795M983.43 70.6334L977.852 64.9M983.43 70.6334H1027.33M995.341 82.8816H1041.23M1034.13 76.6225L1027.33 70.6334M1034.13 76.6225L1041.23 82.8816M1034.13 76.6225H1079M895.62 70.6334L891.901 64.9M934.877 64.9H977.852M934.877 64.9H891.901M934.877 64.9L933.745 63.503L930.421 59.4039M977.852 64.9L975.821 62.8116L975.151 62.1223L972.506 59.4039M977.852 64.9H1020.83M1027.33 70.6334L1020.83 64.9M1027.33 70.6334H1071.24M926.147 54.1307H967.377M926.147 54.1307L922.043 49.0661M926.147 54.1307H884.918M926.147 54.1307L930.421 59.4039M967.377 54.1307L964.275 50.9398L962.452 49.0661M967.377 54.1307L972.506 59.4039M967.377 54.1307H1008.61M922.043 49.0661H962.452M922.043 49.0661L918.585 44.7993L918.1 44.2M884.918 54.1307L882.444 50.3118L881.635 49.0641L878.48 44.202M884.918 54.1307L886.184 56.08L888.338 59.4039M930.421 59.4039H972.506M930.421 59.4039H888.338M962.452 49.0661L957.72 44.2M962.452 49.0661L1002.86 49.0682M972.506 59.4039H1014.59M1008.61 54.1307L1002.86 49.0682M1008.61 54.1307L1014.59 59.4039M1008.61 54.1307H1049.84M918.1 44.2H957.72M918.1 44.2L878.48 44.202M918.1 44.2L914.307 39.522M957.72 44.2L953.168 39.522M957.72 44.2L997.339 44.202M1002.86 49.0682L999.384 46.0041L998.7 45.3986L997.339 44.202M1002.86 49.0682L1043.27 49.0661M910.657 35.018H948.788M910.657 35.018L909.766 33.9175L907.141 30.6816M910.657 35.018H872.526M910.657 35.018L911.556 36.1286L913.382 38.3786L914.307 39.522M948.788 35.018L944.569 30.6816M948.788 35.018L950.411 36.687L951.506 37.812L953.168 39.522M948.788 35.018H986.919M907.141 30.6816H944.569M907.141 30.6816H869.712M907.141 30.6816L904.588 27.5316L903.752 26.5007M872.526 35.018L870.059 31.2134L869.712 30.6816M872.526 35.018L872.884 35.5702L873.245 36.1286L873.607 36.687L875.445 39.522M914.307 39.522H953.168M914.307 39.522H875.445M944.569 30.6816L943.027 29.0964L942.01 28.0511L940.503 26.5007M944.569 30.6816H981.997M953.168 39.522H992.029M986.919 35.018L981.997 30.6816M986.919 35.018L990.09 37.812L990.734 38.3786L992.029 39.522M986.919 35.018H1025.05M869.712 30.6816L867.002 26.5007M903.752 26.5007H940.503M903.752 26.5007H867.002M903.752 26.5007L900.485 22.4691M940.503 26.5007L938.525 24.4675L938.036 23.9623L936.582 22.4691M940.503 26.5007H977.254M981.997 30.6816L977.254 26.5007M981.997 30.6816H1019.43M897.331 18.5786H932.798M897.331 18.5786L895.415 16.2141L894.286 14.8211M897.331 18.5786H861.865M897.331 18.5786L900.485 22.4691M932.798 18.5786L930.044 15.7477L929.593 15.2834L929.143 14.8211M932.798 18.5786L934.673 20.5055L936.582 22.4691M932.798 18.5786H968.263M894.286 14.8211H929.143M894.286 14.8211L892.802 12.9905L892.07 12.0864L891.706 11.6364L891.344 11.1905M894.286 14.8211H859.429M861.865 18.5786L860.03 15.7477L859.429 14.8211M861.865 18.5786L864.388 22.4691M900.485 22.4691H936.582M900.485 22.4691H864.388M929.143 14.8211H964M929.143 14.8211L925.612 11.1905M936.582 22.4691H972.679M968.263 18.5786L965.052 15.7477L964 14.8211M968.263 18.5786L972.119 21.9741L972.679 22.4691M968.263 18.5786H1003.73M891.344 11.1905H925.612M891.344 11.1905H857.075M859.429 14.8211L858.241 12.9905L857.364 11.6384L857.075 11.1905M964 14.8211H998.857M964 14.8211L959.881 11.1905M925.612 11.1905H959.881M1416.43 277.136H1339.05M1416.43 277.136L1390.85 259.609M1416.43 277.136H1439.61M1416.43 277.136L1439.61 293.027M1390.85 259.609L1367.09 243.321M1390.85 259.609L1316.31 259.607M1390.85 259.609L1439.61 259.607M1439.61 293.027V277.134V259.607M1439.61 293.027V296.055M1344.95 228.148H1414.39M1344.95 228.148L1324.28 213.979M1344.95 228.148H1275.51M1344.95 228.148L1367.09 243.321M1414.39 228.148L1391.42 213.979M1414.39 228.148L1438.99 243.321M1414.39 228.148H1439.61M1324.28 213.979H1391.42M1324.28 213.979H1257.14M1324.28 213.979L1304.93 200.716M1275.51 228.148L1257.14 213.979M1275.51 228.148L1295.19 243.319M1367.09 243.321H1438.99M1367.09 243.321L1295.19 243.319M1391.42 213.979L1369.92 200.716M1391.42 213.979H1439.61M1438.99 243.321L1439.61 243.319M1438.99 243.321L1439.61 243.703M1439.61 228.148V213.979M1439.61 228.148V243.319M1257.14 213.979L1239.94 200.714M1304.93 200.716H1369.92M1304.93 200.716L1239.94 200.714M1304.93 200.716L1286.78 188.278M1369.92 200.716L1349.76 188.278M1369.92 200.716L1434.91 200.714M1439.61 213.979V203.349M1269.73 176.588H1330.81M1269.73 176.588L1253.67 165.579M1269.73 176.588H1208.65M1269.73 176.588L1286.78 188.278M1330.81 176.588L1312.96 165.581M1330.81 176.588L1349.76 188.278M1330.81 176.588L1391.89 176.586M1253.67 165.579L1312.96 165.581M1253.67 165.579L1194.37 165.581L1208.65 176.584M1253.67 165.579L1238.52 155.197M1286.78 188.278H1349.76M1286.78 188.278H1223.81M1312.96 165.581L1296.13 155.197M1312.96 165.581L1372.26 165.579M1349.76 188.278L1412.73 188.276M1391.89 176.586L1372.26 165.579M1391.89 176.586L1412.73 188.276M1391.89 176.586L1439.61 176.584M1238.52 155.197H1296.13M1238.52 155.197L1180.91 155.195M1238.52 155.197L1224.21 145.389M1296.13 155.197L1280.23 145.389M1296.13 155.197L1353.75 155.195M1372.26 165.579L1353.75 155.195M1372.26 165.579L1431.56 165.577M1210.66 136.104H1265.18M1210.66 136.104L1197.83 127.309M1210.66 136.104H1156.15M1210.66 136.104L1224.21 145.389M1265.18 136.104L1250.92 127.311M1265.18 136.104L1280.23 145.389M1265.18 136.104L1319.7 136.106M1197.83 127.309L1250.92 127.311M1197.83 127.309L1144.74 127.311L1156.15 136.104M1197.83 127.309L1185.65 118.961M1156.15 136.104L1168.18 145.387M1224.21 145.389H1280.23M1224.21 145.389L1168.18 145.387M1250.92 127.311L1237.39 118.961M1250.92 127.311L1304.02 127.309M1280.23 145.389L1336.25 145.387M1319.7 136.106L1336.25 145.387M1319.7 136.106L1374.22 136.104M1185.65 118.961H1237.39M1185.65 118.961L1133.91 118.959M1185.65 118.961L1174.08 111.025M1237.39 118.961L1224.53 111.025M1237.39 118.961L1289.13 118.959M1304.02 127.309L1289.13 118.959M1304.02 127.309L1319.7 136.102M1304.02 127.309H1357.11M1163.06 103.477H1212.29M1163.06 103.477L1152.57 96.2855M1163.06 103.477H1113.83M1163.06 103.477L1174.08 111.025M1212.29 103.477L1200.64 96.2855M1212.29 103.477L1224.53 111.025M1212.29 103.477H1261.52M1152.57 96.2855H1200.64M1152.57 96.2855H1104.51M1152.57 96.2855L1142.57 89.4291M1113.83 103.477L1104.51 96.2855M1113.83 103.477L1123.62 111.027M1174.08 111.025H1224.53M1174.08 111.025L1123.62 111.027M1200.64 96.2855L1189.52 89.4291M1200.64 96.2855H1248.7M1224.53 111.025H1274.98M1261.52 103.477L1248.7 96.2855M1261.52 103.477L1274.98 111.025M1261.52 103.477H1310.75M1104.51 96.2855L1095.61 89.4291M1142.57 89.4291H1189.52M1142.57 89.4291H1095.61M1142.57 89.4291L1133.01 82.8816M1189.52 89.4291L1178.9 82.8816M1189.52 89.4291L1236.47 89.427M1248.7 96.2855L1236.47 89.427M1248.7 96.2855H1296.76M1123.88 76.6205H1168.76M1123.88 76.6205L1115.14 70.6334M1123.88 76.6205L1079 76.6225M1123.88 76.6205L1133.01 82.8816M1168.76 76.6205L1159.05 70.6334M1168.76 76.6205L1178.9 82.8816M1168.76 76.6205L1213.63 76.6225M1115.14 70.6334H1159.05M1115.14 70.6334H1071.24M1115.14 70.6334L1106.78 64.9M1079 76.6225L1071.24 70.6334M1079 76.6225L1087.12 82.8795M1133.01 82.8816H1178.9M1133.01 82.8816L1087.12 82.8795M1159.05 70.6334L1149.75 64.9M1159.05 70.6334H1202.95M1178.9 82.8816H1224.79M1213.63 76.6225L1202.95 70.6334M1213.63 76.6225L1224.79 82.8816M1213.63 76.6225H1258.51M1071.24 70.6334L1063.8 64.9M1106.78 64.9H1149.75M1106.78 64.9H1063.8M1106.78 64.9L1098.76 59.4039M1149.75 64.9L1140.84 59.4039M1149.75 64.9H1192.73M1202.95 70.6334L1192.73 64.9M1202.95 70.6334H1246.86M1091.07 54.1307H1132.29M1091.07 54.1307L1083.68 49.0661M1091.07 54.1307H1049.84M1091.07 54.1307L1098.76 59.4039M1132.29 54.1307L1124.09 49.0661M1132.29 54.1307L1140.84 59.4039M1132.29 54.1307H1173.52M1083.68 49.0661H1124.09M1083.68 49.0661H1043.27M1083.68 49.0661L1076.58 44.202M1049.84 54.1307L1043.27 49.0661M1049.84 54.1307L1056.67 59.4039M1098.76 59.4039H1140.84M1098.76 59.4039H1056.67M1124.09 49.0661L1116.2 44.202M1124.09 49.0661H1164.5M1140.84 59.4039H1182.93M1173.52 54.1307L1164.5 49.0661M1173.52 54.1307L1182.93 59.4039M1173.52 54.1307H1214.75M1043.27 49.0661L1036.96 44.202M1076.58 44.202H1116.2M1076.58 44.202H1036.96M1076.58 44.202L1069.75 39.522M1116.2 44.202L1109.55 40.0968L1108.61 39.522M1116.2 44.202H1155.82M1164.5 49.0661L1155.82 44.202M1164.5 49.0661H1204.9M1063.18 35.018H1101.31M1063.18 35.018L1056.85 30.6816M1063.18 35.018H1025.05M1063.18 35.018L1064.8 36.1286L1065.62 36.687L1069.75 39.522M1101.31 35.018L1094.28 30.6816M1101.31 35.018L1108.61 39.522M1101.31 35.018H1139.44M1056.85 30.6816H1094.28M1056.85 30.6816H1019.43M1056.85 30.6816L1050.75 26.5007M1025.05 35.018L1019.43 30.6816M1025.05 35.018L1030.89 39.522M1069.75 39.522H1108.61M1069.75 39.522H1030.89M1094.28 30.6816L1087.51 26.5007M1094.28 30.6816H1131.71M1108.61 39.522H1147.48M1139.44 35.018L1131.71 30.6816M1139.44 35.018L1147.48 39.522M1139.44 35.018H1177.58M1019.43 30.6816L1014 26.5007M1050.75 26.5007H1087.51M1050.75 26.5007H1014M1050.75 26.5007L1044.87 22.4691M1087.51 26.5007L1080.97 22.4691M1087.51 26.5007H1124.26M1131.71 30.6816L1124.26 26.5007M1131.71 30.6816H1169.14M1039.2 18.5786H1074.66M1039.2 18.5786L1033.71 14.8211M1039.2 18.5786H1003.73M1039.2 18.5786L1044.87 22.4691M1074.66 18.5786L1070.07 15.7477L1069.32 15.2834L1068.57 14.8211M1074.66 18.5786L1080.97 22.4691M1074.66 18.5786H1110.13M1033.71 14.8211H1068.57M1033.71 14.8211L1029.07 11.6384L1028.42 11.1905M1033.71 14.8211H998.857M1003.73 18.5786L998.857 14.8211M1003.73 18.5786L1008.78 22.4691M1044.87 22.4691H1080.97M1044.87 22.4691H1008.78M1068.57 14.8211H1103.43M1068.57 14.8211L1062.69 11.1905M1080.97 22.4691H1117.07M1110.13 18.5786L1103.43 14.8211M1110.13 18.5786L1117.07 22.4691M1110.13 18.5786H1145.59M1028.42 11.1905H1062.69M1028.42 11.1905H994.149M998.857 14.8211L995.311 12.0864L994.149 11.1905M1103.43 14.8211H1138.29M1103.43 14.8211L1096.96 11.1905M1062.69 11.1905H1096.96M1428.74 136.104L1410.2 127.309M1428.74 136.104H1374.22M1428.74 136.104L1439.61 141.263M1428.74 136.104H1439.61M1410.2 127.309H1357.11M1410.2 127.309L1392.61 118.959M1410.2 127.309L1439.61 127.307M1374.22 136.104L1357.11 127.309M1374.22 136.104L1392.28 145.387M1439.61 141.263V136.104M1439.61 141.263V145.387M1439.61 136.104V127.307M1357.11 127.309L1340.87 118.959M1392.61 118.959L1375.89 111.025M1392.61 118.959H1340.87M1392.61 118.959H1439.61M1439.61 127.307V118.959M1359.98 103.477H1409.21M1359.98 103.477L1344.83 96.2855M1359.98 103.477H1310.75M1359.98 103.477L1375.89 111.025M1409.21 103.477L1392.89 96.2855M1409.21 103.477L1426.34 111.025M1409.21 103.477H1439.61M1344.83 96.2855H1392.89M1344.83 96.2855H1296.76M1344.83 96.2855L1330.37 89.4291M1310.75 103.477L1296.76 96.2855M1310.75 103.477L1325.43 111.025M1375.89 111.025H1426.34M1375.89 111.025H1325.43M1392.89 96.2855L1377.32 89.4291M1392.89 96.2855H1439.61M1426.34 111.025L1439.61 116.875M1426.34 111.025H1439.61M1439.61 103.477H1439.98M1439.61 103.477V96.2855M1439.61 103.477V111.025M1296.76 96.2855L1283.42 89.4291M1330.37 89.4291H1377.32M1330.37 89.4291H1283.42M1330.37 89.4291L1316.57 82.8816M1377.32 89.4291L1362.46 82.8816M1377.32 89.4291H1424.28M1439.61 96.2855V95.7352M1303.38 76.6205H1348.26M1303.38 76.6205L1290.76 70.6334M1303.38 76.6205L1258.51 76.6225M1303.38 76.6205L1316.57 82.8816M1348.26 76.6205L1334.67 70.6334M1348.26 76.6205L1362.46 82.8816M1348.26 76.6205L1393.13 76.6225M1290.76 70.6334H1334.67M1290.76 70.6334H1246.86M1290.76 70.6334L1278.68 64.9M1258.51 76.6225L1246.86 70.6334M1258.51 76.6225L1270.68 82.8795M1316.57 82.8816H1362.46M1316.57 82.8816L1270.68 82.8795M1334.67 70.6334L1321.66 64.9M1334.67 70.6334H1378.57M1362.46 82.8816H1408.35M1393.13 76.6225L1378.57 70.6334M1393.13 76.6225L1408.35 82.8816M1393.13 76.6225H1438.01M1246.86 70.6334L1235.7 64.9M1278.68 64.9H1321.66M1278.68 64.9H1235.7M1278.68 64.9L1267.1 59.4039M1321.66 64.9L1309.18 59.4039M1321.66 64.9H1364.63M1378.57 70.6334L1364.63 64.9M1378.57 70.6334H1422.48M1255.98 54.1307H1297.21M1255.98 54.1307L1245.31 49.0661M1255.98 54.1307H1214.75M1255.98 54.1307L1267.1 59.4039M1297.21 54.1307L1285.72 49.0661M1297.21 54.1307L1309.18 59.4039M1297.21 54.1307H1338.44M1245.31 49.0661H1285.72M1245.31 49.0661H1204.9M1245.31 49.0661L1235.06 44.202M1214.75 54.1307L1204.9 49.0661M1214.75 54.1307L1225.01 59.4039M1267.1 59.4039H1309.18M1267.1 59.4039H1225.01M1285.72 49.0661L1274.68 44.202M1285.72 49.0661H1326.13M1309.18 59.4039H1351.27M1338.44 54.1307L1326.13 49.0661M1338.44 54.1307L1351.27 59.4039M1338.44 54.1307H1379.67M1204.9 49.0661L1195.44 44.202M1235.06 44.202H1274.68M1235.06 44.202H1195.44M1235.06 44.202L1225.2 39.522M1274.68 44.202L1264.06 39.522M1274.68 44.202H1314.3M1326.13 49.0661L1314.3 44.202M1326.13 49.0661H1366.54M1215.71 35.018H1253.84M1215.71 35.018L1206.57 30.6816M1215.71 35.018H1177.58M1215.71 35.018L1225.2 39.522M1253.84 35.018L1243.99 30.6816M1253.84 35.018L1264.06 39.522M1253.84 35.018H1291.97M1206.57 30.6816H1243.99M1206.57 30.6816H1169.14M1206.57 30.6816L1197.76 26.5007M1177.58 35.018L1170.18 31.2134L1169.14 30.6816M1177.58 35.018L1186.34 39.522M1225.2 39.522H1264.06M1225.2 39.522H1186.34M1243.99 30.6816L1234.51 26.5007M1243.99 30.6816H1281.42M1264.06 39.522H1302.92M1291.97 35.018L1281.42 30.6816M1291.97 35.018L1302.92 39.522M1291.97 35.018H1330.1M1169.14 30.6816L1161.01 26.5007M1197.76 26.5007H1234.51M1197.76 26.5007H1161.01M1197.76 26.5007L1189.26 22.4691M1234.51 26.5007L1225.36 22.4691M1234.51 26.5007H1271.26M1281.42 30.6816L1271.26 26.5007M1281.42 30.6816H1318.85M1181.06 18.5786H1216.53M1181.06 18.5786L1173.14 14.8211M1181.06 18.5786H1145.59M1181.06 18.5786L1189.26 22.4691M1216.53 18.5786L1208 14.8211M1216.53 18.5786L1225.36 22.4691M1216.53 18.5786H1251.99M1173.14 14.8211H1208M1173.14 14.8211L1165.49 11.1905M1173.14 14.8211H1138.29M1145.59 18.5786L1138.29 14.8211M1145.59 18.5786L1153.16 22.4691M1189.26 22.4691H1225.36M1189.26 22.4691H1153.16M1208 14.8211H1242.86M1208 14.8211L1199.76 11.1905M1225.36 22.4691H1261.45M1251.99 18.5786L1242.86 14.8211M1251.99 18.5786L1261.45 22.4691M1251.99 18.5786H1287.46M1165.49 11.1905H1199.76M1165.49 11.1905H1131.22M1138.29 14.8211L1131.22 11.1905M1242.86 14.8211H1277.71M1242.86 14.8211L1234.03 11.1905M1199.76 11.1905H1234.03M1420.9 54.1307L1406.95 49.0661M1420.9 54.1307H1379.67M1420.9 54.1307L1435.43 59.4039M1420.9 54.1307H1439.61M1406.95 49.0661H1366.54M1406.95 49.0661L1393.54 44.202M1406.95 49.0661H1439.61M1379.67 54.1307L1366.54 49.0661M1379.67 54.1307L1393.35 59.4039M1435.43 59.4039H1393.35M1435.43 59.4039H1439.61M1435.43 59.4039L1439.61 60.9175M1439.61 54.1307V49.0661M1439.61 54.1307V59.4059V60.9195V64.9M1366.54 49.0661L1353.92 44.202M1393.54 44.202H1433.16M1393.54 44.202H1353.92M1393.54 44.202L1380.64 39.522M1439.61 49.0661V46.4111M1368.23 35.018H1406.36M1368.23 35.018L1356.28 30.6816M1368.23 35.018H1330.1M1368.23 35.018L1380.64 39.522M1406.36 35.018L1393.71 30.6816M1406.36 35.018L1419.5 39.522M1406.36 35.018H1439.61M1356.28 30.6816H1393.71M1356.28 30.6816H1318.85M1356.28 30.6816L1344.76 26.5007M1330.1 35.018L1318.85 30.6816M1330.1 35.018L1341.78 39.522M1380.64 39.522H1419.5M1380.64 39.522H1341.78M1393.71 30.6816L1381.51 26.5007M1393.71 30.6816H1431.14M1419.5 39.522L1433.16 44.202M1419.5 39.522H1439.61M1439.61 35.018H1439.73M1439.61 35.018V33.4327M1439.61 35.018V39.522M1318.85 30.6816L1308.01 26.5007M1344.76 26.5007H1381.51M1344.76 26.5007H1308.01M1344.76 26.5007L1333.65 22.4691M1381.51 26.5007L1369.74 22.4691M1381.51 26.5007H1418.26M1431.14 30.6816L1418.26 26.5007M1431.14 30.6816L1439.61 33.4327M1431.14 30.6816H1439.61M1322.93 18.5786H1358.39M1322.93 18.5786L1312.57 14.8211M1322.93 18.5786H1287.46M1322.93 18.5786L1333.65 22.4691M1358.39 18.5786L1347.43 14.8211M1358.39 18.5786L1369.74 22.4691M1358.39 18.5786H1393.86M1312.57 14.8211H1347.43M1312.57 14.8211L1302.57 11.1905M1312.57 14.8211H1277.71M1287.46 18.5786L1277.71 14.8211M1287.46 18.5786L1297.55 22.4691M1333.65 22.4691H1369.74M1333.65 22.4691H1297.55M1347.43 14.8211H1382.29M1347.43 14.8211L1336.84 11.1905M1369.74 22.4691H1405.84M1393.86 18.5786L1382.29 14.8211M1393.86 18.5786L1405.84 22.4691M1393.86 18.5786H1429.32M1302.57 11.1905H1336.84M1302.57 11.1905H1268.3M1277.71 14.8211L1268.3 11.1905M1382.29 14.8211H1417.14M1382.29 14.8211L1371.1 11.1905M1336.84 11.1905H1371.1M1405.84 22.4691L1418.26 26.5007M1405.84 22.4691H1439.61M1429.32 18.5786L1417.14 14.8211M1429.32 18.5786L1439.61 21.7511M1429.32 18.5786H1439.61M1417.14 14.8211L1405.37 11.1905M1417.14 14.8211H1439.61M1371.1 11.1905H1405.37M1371.1 11.1905L1360.29 7.68045M1418.26 26.5007H1439.61M1439.61 22.4691V21.7511M1439.61 22.4691V26.5007M1439.61 21.7511V18.5786M1439.61 18.5786V14.8211M1405.37 11.1905L1393.99 7.68045M1405.37 11.1905H1439.61M1439.61 14.8211V11.1905M1360.29 7.68045H1393.99M1439.61 11.1905H1439.64L1439.61 11.1823M1439.61 11.1905V11.1823M1439.61 33.4327V30.6816M1439.61 30.6816V26.5007M1308.01 26.5007L1297.55 22.4691M1308.01 26.5007H1271.26M1297.55 22.4691H1261.45M1433.16 44.202L1439.61 46.4111M1433.16 44.202H1439.61M1439.61 39.522V44.202M1439.61 46.4111V44.202M1353.92 44.202L1341.78 39.522M1353.92 44.202H1314.3M1341.78 39.522H1302.92M1261.45 22.4691L1271.26 26.5007M1234.03 11.1905H1268.3M1234.03 11.1905L1225.5 7.68045M1268.3 11.1905L1259.2 7.68045M1225.5 7.68045H1259.2M1161.01 26.5007L1153.16 22.4691M1161.01 26.5007H1124.26M1153.16 22.4691H1117.07M1302.92 39.522L1314.3 44.202M1195.44 44.202L1186.34 39.522M1195.44 44.202H1155.82M1186.34 39.522H1147.48M1351.27 59.4039L1364.63 64.9M1351.27 59.4039H1393.35M1393.35 59.4039L1407.61 64.9M1364.63 64.9H1407.61M1407.61 64.9L1422.48 70.6334M1407.61 64.9H1439.61M1422.48 70.6334L1438.01 76.6225M1422.48 70.6334H1439.61M1235.7 64.9L1225.01 59.4039M1235.7 64.9H1192.73M1439.61 64.9H1439.84M1439.61 64.9V70.6334M1225.01 59.4039H1182.93M1408.35 82.8816L1424.28 89.4291M1408.35 82.8816L1439.61 82.8795M1438.01 76.6225L1439.61 77.2402M1438.01 76.6225L1439.61 76.6205M1439.61 70.6334V76.6245V77.2402M1439.61 77.2402L1440 77.3895M1439.61 77.2402V82.8795M1424.28 89.4291H1439.61M1424.28 89.4291L1439.61 95.7352M1439.61 82.8795V89.4291M1439.61 89.4291V95.7352M1283.42 89.4291L1270.68 82.8795M1283.42 89.4291L1236.47 89.427M1270.68 82.8795L1224.79 82.8816M1439.61 116.875V111.025M1439.61 116.875V118.959M1325.43 111.025H1274.98M1325.43 111.025L1340.87 118.959M1439.76 116.938L1439.61 116.873M1117.07 22.4691L1124.26 26.5007M1096.96 11.1905H1131.22M1096.96 11.1905L1090.7 7.68045M1131.22 11.1905L1130.36 10.7445L1128.64 9.86091L1124.4 7.68045M1090.7 7.68045H1124.4M1014 26.5007L1008.78 22.4691M1014 26.5007H977.254M1008.78 22.4691H972.679M1147.48 39.522L1155.82 44.202M1036.96 44.202L1030.89 39.522M1036.96 44.202H997.339M1030.89 39.522H992.029M1182.93 59.4039L1192.73 64.9M1063.8 64.9L1056.67 59.4039M1063.8 64.9H1020.83M1056.67 59.4039H1014.59M1224.79 82.8816L1236.47 89.427M1095.61 89.4291L1087.12 82.8795M1095.61 89.4291L1048.66 89.427M1087.12 82.8795L1041.23 82.8816M1274.98 111.025L1289.13 118.959M1289.13 118.959H1340.87M1133.91 118.959L1123.62 111.027M1133.91 118.959H1082.17M1123.62 111.027L1073.17 111.025M1336.25 145.387L1353.75 155.195M1336.25 145.387H1392.28M1392.28 145.387L1411.36 155.195M1392.28 145.387H1439.61M1353.75 155.195H1411.36M1411.36 155.195L1431.56 165.577M1411.36 155.195H1439.61M1439.61 145.387V155.195M1431.56 165.577L1439.61 165.579M1431.56 165.577L1439.61 169.719M1180.91 155.195L1168.18 145.387M1180.91 155.195H1123.29M1439.61 155.195V165.579M1168.18 145.387H1112.16M1412.73 188.276L1434.91 200.714M1412.73 188.276L1439.61 188.278M1439.61 176.584V169.719M1439.61 176.584V188.278M1439.61 165.579V169.719M1434.91 200.714L1439.61 203.349M1434.91 200.714H1439.61M1439.61 188.278V200.714M1439.61 203.349V200.714M1239.94 200.714L1223.81 188.278M1239.94 200.714H1174.95M1223.81 188.278L1208.65 176.584M1223.81 188.278L1160.83 188.276M1439.61 243.319V243.703M1439.61 243.703V259.607M1295.19 243.319H1223.29M1295.19 243.319L1316.31 259.607M972.679 22.4691L973.807 23.4632L977.254 26.5007M959.881 11.1905H994.149M959.881 11.1905L955.898 7.68045M994.149 11.1905L992.424 9.86091L989.598 7.68045M955.898 7.68045H989.598M867.002 26.5007L866.34 25.478L864.388 22.4691M867.002 26.5007H830.251M864.388 22.4691H828.291M992.029 39.522L997.339 44.202M878.48 44.202L878.094 43.6068L877.71 43.0136L875.445 39.522M878.48 44.202H838.86M875.445 39.522H836.584M1014.59 59.4039L1020.83 64.9M891.901 64.9L888.338 59.4039M891.901 64.9L848.926 64.898M888.338 59.4039L846.253 59.4018M1041.23 82.8816L1048.66 89.427M907.807 89.4291L903.561 82.8795M907.807 89.4291L860.855 89.427M903.561 82.8795L857.671 82.8775M1073.17 111.025L1082.17 118.959M926.956 118.959L921.812 111.025M926.956 118.959H875.217M921.812 111.025H871.359M1112.16 145.387L1123.29 155.195M950.453 155.195L944.093 145.387M950.453 155.195H892.84M944.093 145.387H888.069M1160.83 188.276L1174.95 200.714M979.969 200.714L971.903 188.28L908.927 188.278M979.969 200.714L914.977 200.716M1223.29 243.319L1241.77 259.607M1241.77 259.607H1316.31M1316.31 259.607L1339.05 277.134M1339.05 277.134L1363.58 296.055M1018.16 259.607L1007.6 243.319M1018.16 259.607H943.617M1007.6 243.319H935.696M1306.37 316.534L1331.62 338.778M1306.37 316.534H1390.14M1363.58 296.055L1390.14 316.534M1363.58 296.055H1439.61M1390.14 316.534L1418.99 338.778M1390.14 316.534H1439.61M1439.61 296.055V316.534M1331.62 338.778H1418.99M1418.99 338.778H1439.61M1418.99 338.778L1439.61 354.68M1439.61 316.534V338.778M1439.61 363.023V354.68M1439.61 363.023V389.55M1069.49 338.778L1055.07 316.534M1069.49 338.778H982.121M1439.61 338.778V354.68M1055.07 316.534H971.304M1422.31 418.702L1439.61 433.949M1422.31 418.702H1439.61M1439.61 389.55V418.702M1353.28 450.885H1247.74M1353.28 450.885H1439.61M1439.61 433.949V418.702M1439.61 433.949V450.885M1247.74 450.885H1142.19M1439.61 450.885V451H0.388V450.885M1142.19 450.885L1121.32 418.702M1142.19 450.885H1036.64M1121.32 418.702H1020.99M828.291 22.4691L828.532 22.9641L828.775 23.4632L829.018 23.9643L829.263 24.4675L830.251 26.5007M822.806 11.1905L822.59 10.7445L822.16 9.86091L821.732 8.98341L821.521 8.54773L821.099 7.68045M822.806 11.1905H857.075M857.075 11.1905L855.08 8.11409L854.798 7.68045M821.099 7.68045H854.798M720 26.5007H683.25M720 22.4691H683.903M720 22.4691V26.5027M836.584 39.522L838.86 44.202M720 44.202V39.52M720 44.202H680.38M720 39.52L681.139 39.522M846.253 59.4018L848.926 64.898M720 64.898V59.4018M720 64.898H677.025M720 59.4018H677.915M857.671 82.8775H811.781M857.671 82.8775L860.855 89.427M854.627 76.6184H899.503M720 89.427V82.8795M720 89.427H673.048M720 82.8795L674.11 82.8816M871.359 111.025L875.217 118.959M720 118.959V111.025M720 118.959H668.261M720 111.025H669.547M888.069 145.387L892.84 155.195M720 155.195V145.389M720 155.195H662.387M720 145.389L663.977 145.387M908.927 188.278L914.977 200.716M720 200.716V188.28L657.024 188.278M720 200.716H655.008M935.696 243.319L943.617 259.607M720 259.607V243.319M720 259.607H645.461M720 243.319H648.101M971.304 316.534L982.121 338.778M720 338.778V316.534M720 338.778H632.626M720 316.534H636.232M1020.99 418.702L1036.64 450.885M931.095 450.885H1036.64M931.095 450.885H825.548M825.548 450.885H720M720 450.885V418.702M720 450.885H614.452M720 418.702H619.67M683.903 22.4691L683.822 22.9641L683.742 23.4632L683.66 23.9643L683.25 26.5007M685.732 11.1905L720 11.1925M685.732 11.1905L685.947 9.86295L686.019 9.42318L686.3 7.68455M720 11.1925V7.68045M686.3 7.68455L720 7.68045M572.998 26.5007L573.66 25.478L575.612 22.4691M572.998 26.5007H536.248M575.612 22.4691H539.515M681.139 39.522L680.38 44.202M561.52 44.202L564.555 39.52M561.52 44.202L521.9 44.2M561.52 44.202L558.365 49.0641M564.555 39.52L525.693 39.522M677.915 59.4018L677.697 60.7518L677.251 63.5009L677.025 64.898M548.099 64.898L551.662 59.4039M548.099 64.898H505.123M551.662 59.4039L509.579 59.4018M674.11 82.8816L673.048 89.427M532.193 89.4291L536.439 82.8795M532.193 89.4291L485.241 89.427M536.439 82.8795L490.549 82.8775M669.547 111.025L668.261 118.959M513.044 118.959L518.188 111.025M513.044 118.959H461.305M518.188 111.025H467.735M663.977 145.387L662.387 155.195M489.547 155.195L495.907 145.389M489.547 155.195H431.934M495.907 145.389L439.885 145.387M657.024 188.278L655.008 200.716M460.031 200.716L468.097 188.28L405.121 188.278M460.031 200.716H395.039M648.101 243.319L645.461 259.607M421.844 259.607L432.405 243.319M421.844 259.607H347.304M432.405 243.319H360.506M636.232 316.534L632.626 338.778M370.505 338.778L384.929 316.534M370.505 338.778H283.132M384.929 316.534H301.161M619.67 418.702L614.452 450.885M508.905 450.885H614.452M508.905 450.885H403.358M403.358 450.885H297.81M297.81 450.885L318.679 418.702M297.81 450.885H192.263M318.679 418.702H218.349M539.515 22.4691L536.248 26.5007M548.657 11.1905H582.925M548.657 11.1905L550.799 8.54773L551.501 7.68045M582.925 11.1905L583.214 10.7445L583.788 9.86091L585.201 7.68045M551.501 7.68045H585.201M425.996 26.5007L431.224 22.4691M425.996 26.5007H389.245M431.224 22.4691H395.127M525.693 39.522L521.9 44.2M521.9 44.2L517.957 49.0641M517.957 49.0641H558.365M403.041 44.202L408.364 40.0968L409.109 39.52M403.041 44.202H363.421M409.109 39.52L370.247 39.522M509.579 59.4018L505.123 64.898M376.197 64.898L383.326 59.4018M376.197 64.898L333.222 64.9M383.326 59.4018L341.241 59.4039M490.549 82.8775H444.659M490.549 82.8775L485.241 89.427M495.622 76.6184H540.497M344.386 89.427L352.878 82.8795M344.386 89.427H297.435M352.878 82.8795L306.988 82.8816M467.735 111.025L461.305 118.959M306.089 118.959L316.377 111.025M306.089 118.959H254.349M316.377 111.025H265.924M439.885 145.387L431.934 155.195M259.094 155.195L271.816 145.389M259.094 155.195H201.481M271.816 145.389L215.792 145.387M405.121 188.278L395.039 200.716M200.062 200.716L216.193 188.28L153.217 188.278M200.062 200.716H135.07M360.506 243.319L347.304 259.607M123.687 259.607L144.809 243.319M123.687 259.607H49.147M144.809 243.319H72.911M301.161 316.534L283.132 338.778M21.01 338.778L49.858 316.534M21.01 338.778H0.388M21.01 338.778L0.388 354.68M49.858 316.534H0.388M218.349 418.702L192.263 450.885M86.716 450.885H192.263M86.716 450.885H0.388M0.388 450.885V433.949M0.388 433.949V418.702M395.127 22.4691L389.245 26.5007M411.582 11.1905L412.232 10.7445L416.703 7.68045M411.582 11.1905H445.851M445.851 11.1905L447.576 9.86091L450.403 7.68045M416.703 7.68045H450.403M278.994 26.5007L286.837 22.4691M278.994 26.5007H242.243M286.837 22.4691H250.74M370.247 39.522L363.421 44.202M244.561 44.202L253.663 39.522M244.561 44.202H204.941M253.663 39.522H214.802M341.241 59.4039L333.222 64.9M204.296 64.9L214.988 59.4039M204.296 64.9H161.321M214.988 59.4039H172.904M306.988 82.8816L297.435 89.427M156.579 89.4291L169.317 82.8795M156.579 89.4291L109.628 89.427M169.317 82.8795L123.427 82.8816M265.924 111.025L254.349 118.959M99.133 118.959L114.565 111.029H64.113M99.133 118.959L47.393 118.961M99.133 118.959L82.893 127.307H29.8M215.792 145.387L201.481 155.195M86.254 155.195H28.642M86.256 155.195L103.747 145.387M259.095 155.195L245.63 165.577M47.723 145.389L28.641 155.197M47.723 145.389H0.388M153.217 188.278L90.242 188.28H27.266M153.217 188.278L135.07 200.716M5.085 200.716L27.265 188.28M5.085 200.716H0.388M5.085 200.716L0.388 203.349M95.048 228.148L72.911 243.319M0.388 200.716V203.349M0.388 200.716V188.276M0.388 188.276V176.582V169.717V165.577M72.911 243.319L49.147 259.607M0.388 243.319V243.703M0.388 243.703V259.607V277.134M49.147 259.607L23.573 277.134M49.147 259.607H0.387M23.573 277.134H0.388M23.573 277.134L0.388 293.025M0.388 277.134V293.025M0.388 293.025V296.055M0.388 296.055V316.534M0.388 316.534V338.778M0.388 338.778V354.68M250.74 22.4691L242.243 26.5007M274.507 11.1905L275.445 10.7445L281.904 7.68045M274.507 11.1905H308.776M308.776 11.1905L309.642 10.7445L315.603 7.68045M281.904 7.68045H315.603M131.992 26.5007H95.241M142.449 22.4691L106.352 22.4711M142.449 22.4691L152.541 18.5807M142.449 22.4691L131.992 26.5027M214.802 39.522L204.941 44.202M86.081 44.202L98.218 39.52L59.357 39.522L71.768 35.018L83.721 30.6816M86.081 44.202L46.462 44.2M86.081 44.202L73.461 49.0641M172.904 59.4039L161.321 64.9M32.395 64.9L46.651 59.4039M32.395 64.9H0.388M46.651 59.4039H4.567M123.427 82.8816L109.628 89.427M31.648 82.8795H0.387M64.112 111.025L47.393 118.961M0.388 116.875V118.959M47.393 118.961L29.8 127.307M47.393 118.961L0.388 118.959M29.8 127.307L11.262 136.102M29.8 127.307H0.388M11.262 136.102H0.388M11.262 136.102L0.388 141.265M0.388 118.959V127.311V136.106V141.265M0.24 116.936L0.387 116.875M0.388 141.265V145.389M28.641 155.197L0.388 155.199M0.388 145.389V155.195V165.577M0.388 165.577H8.444L0.388 169.721M106.352 22.4711L117.074 18.5807M106.352 22.4711L95.242 26.5027M117.074 18.5807H152.541M137.433 11.1925H171.701M137.433 11.1925L147.105 7.6825M68.895 11.1925L34.627 11.1905M171.701 11.1925L180.805 7.6825M147.105 7.6825H180.805M95.241 26.5007H58.491H21.741M95.241 26.5007L83.721 30.6816M21.741 26.5007H0.389M20.497 39.522L6.842 44.2M6.842 44.2H46.462M6.842 44.2L0.388 46.4091M6.842 44.2H0.388M0.387 39.52H20.496H59.356L46.462 44.2M46.462 44.2L33.053 49.0641M33.052 49.0641L19.1 54.1307M19.1 54.1307L4.567 59.4039M19.1 54.1307H0.388M33.052 49.0661H0.388M0.388 49.0661V54.1307M0.388 49.0661V46.4132V44.2M4.567 59.4039L0.386 60.9175M4.567 59.4039H0.387M0.388 54.1307V59.4039V60.9195V64.9M0.388 70.6334V76.6205M0.388 70.6334V64.9M0.388 64.9H0.163M0.388 76.6205V77.2402M0.388 77.2402L0 77.3895M0.388 18.5786V14.8211L0.389 11.1905M34.627 11.1905L46.006 7.68045L12.306 7.6825M34.627 11.1905H0.389M0.389 11.1905H0.358L0.388 11.1823M0.389 11.1905L0.388 11.1823M12.306 7.6825L0.388 11.1823M12.306 7.6825L0.388 7.68045M0.388 11.1823V7.68045M1439.61 11.1823V7.68045" stroke="url(#paint0_linear_1105_1334)" stroke-width="1.889" stroke-miterlimit="10" stroke-linecap="round" stroke-linejoin="round"/>
<defs>
<linearGradient id="paint0_linear_1105_1334" x1="720" y1="451" x2="720" y2="1" gradientUnits="userSpaceOnUse">
<stop stop-opacity="0"/>
<stop offset="0.375" stop-opacity="0.08"/>
<stop offset="0.73" stop-opacity="0.08"/>
<stop offset="1" stop-opacity="0"/>
</linearGradient>
</defs>
</svg>
